# Blender 4.4.3
# www.blender.org
mtllib pencil_3_collision.mtl
o Object_2
v -0.516171 -0.001363 2.034651
v -0.072597 -0.001364 3.498246
v -0.064966 0.022101 3.498041
v -0.421194 0.290704 2.032094
v -0.421194 0.290704 2.032094
v -0.064966 0.022101 3.498041
v -0.044990 0.036603 3.497503
v -0.172542 0.471212 2.025398
v -0.172542 0.471212 2.025398
v -0.044990 0.036603 3.497503
v -0.020297 0.036603 3.496839
v 0.134808 0.471212 2.017122
v 0.134808 0.471212 2.017122
v -0.020297 0.036603 3.496839
v -0.000321 0.022101 3.496301
v 0.383461 0.290704 2.010427
v 0.383461 0.290704 2.010427
v -0.000321 0.022101 3.496301
v 0.007310 -0.001364 3.496095
v 0.478437 -0.001364 2.007870
v 0.478437 -0.001364 2.007870
v 0.007310 -0.001364 3.496095
v -0.000321 -0.024828 3.496301
v 0.383460 -0.293431 2.010427
v 0.383460 -0.293431 2.010427
v -0.000321 -0.024828 3.496301
v -0.020297 -0.039330 3.496839
v 0.134808 -0.473939 2.017122
v 0.134808 -0.473939 2.017122
v -0.020297 -0.039330 3.496839
v -0.044990 -0.039330 3.497503
v -0.172543 -0.473939 2.025398
v -0.172543 -0.473939 2.025398
v -0.044990 -0.039330 3.497503
v -0.064966 -0.024828 3.498041
v -0.421194 -0.293431 2.032094
v -0.421194 -0.293431 2.032094
v -0.064966 -0.024828 3.498041
v -0.072597 -0.001364 3.498246
v -0.516171 -0.001363 2.034651
v 0.529947 -0.001364 -3.510562
v 0.434971 -0.293431 -3.508005
v 0.399784 -0.267094 -3.624053
v 0.486196 -0.001364 -3.626379
v -0.388805 -0.293431 -1.437783
v -0.421194 -0.293431 2.032094
v -0.516171 -0.001363 2.034651
v -0.483782 -0.001363 -1.435226
v -0.140154 -0.473939 -1.444478
v -0.172543 -0.473939 2.025398
v -0.421194 -0.293431 2.032094
v -0.388805 -0.293431 -1.437783
v 0.167197 -0.473939 -1.452754
v 0.134808 -0.473939 2.017122
v -0.172543 -0.473939 2.025398
v -0.140154 -0.473939 -1.444478
v 0.415849 -0.293431 -1.459450
v 0.383460 -0.293431 2.010427
v 0.134808 -0.473939 2.017122
v 0.167197 -0.473939 -1.452754
v 0.510826 -0.001364 -1.462007
v 0.478437 -0.001364 2.007870
v 0.383460 -0.293431 2.010427
v 0.415849 -0.293431 -1.459450
v 0.415850 0.290704 -1.459450
v 0.383461 0.290704 2.010427
v 0.478437 -0.001364 2.007870
v 0.510826 -0.001364 -1.462007
v 0.167197 0.471212 -1.452754
v 0.134808 0.471212 2.017122
v 0.383461 0.290704 2.010427
v 0.415850 0.290704 -1.459450
v -0.140153 0.471212 -1.444478
v -0.172542 0.471212 2.025398
v 0.134808 0.471212 2.017122
v 0.167197 0.471212 -1.452754
v -0.388805 0.290704 -1.437783
v -0.421194 0.290704 2.032094
v -0.172542 0.471212 2.025398
v -0.140153 0.471212 -1.444478
v -0.483782 -0.001363 -1.435226
v -0.516171 -0.001363 2.034651
v -0.421194 0.290704 2.032094
v -0.388805 0.290704 -1.437783
v 0.434971 0.290704 -3.508005
v 0.529947 -0.001364 -3.510562
v 0.486196 -0.001364 -3.626379
v 0.399784 0.264367 -3.624053
v 0.186319 0.471212 -3.501311
v 0.434971 0.290704 -3.508005
v 0.399784 0.264367 -3.624053
v 0.173554 0.428598 -3.617962
v -0.464661 -0.001363 -3.483781
v -0.369684 0.290704 -3.486338
v -0.332312 0.264367 -3.604341
v -0.418724 -0.001363 -3.602013
v -0.121031 0.471212 -3.493033
v 0.186319 0.471212 -3.501311
v 0.173554 0.428598 -3.617962
v -0.106082 0.428598 -3.610431
v -0.369684 0.290704 -3.486338
v -0.121031 0.471212 -3.493033
v -0.106082 0.428598 -3.610431
v -0.332312 0.264367 -3.604341
v -0.369684 -0.293431 -3.486338
v -0.464661 -0.001363 -3.483781
v -0.418724 -0.001363 -3.602013
v -0.332312 -0.267094 -3.604341
v -0.121032 -0.473939 -3.493033
v -0.369684 -0.293431 -3.486338
v -0.332312 -0.267094 -3.604341
v -0.106082 -0.431325 -3.610431
v 0.186319 -0.473939 -3.501310
v -0.121032 -0.473939 -3.493033
v -0.106082 -0.431325 -3.610431
v 0.173554 -0.431325 -3.617962
v 0.434971 -0.293431 -3.508005
v 0.186319 -0.473939 -3.501310
v 0.173554 -0.431325 -3.617962
v 0.399784 -0.267094 -3.624053
v -0.464661 -0.001363 -3.483781
v -0.471563 -0.001363 -2.744296
v -0.376586 0.290704 -2.746855
v -0.369684 0.290704 -3.486338
v -0.140153 0.471212 -1.444478
v 0.167197 0.471212 -1.452754
v 0.187850 0.535510 -1.425888
v -0.161318 0.535511 -1.416487
v -0.369684 0.290704 -3.486338
v -0.376586 0.290704 -2.746855
v -0.127935 0.471212 -2.753551
v -0.121031 0.471212 -3.493033
v 0.179417 -0.473939 -2.761825
v 0.428068 -0.293431 -2.768521
v 0.483065 -0.333170 -2.797424
v 0.200582 -0.538238 -2.789818
v -0.121031 0.471212 -3.493033
v -0.127935 0.471212 -2.753551
v 0.179417 0.471212 -2.761825
v 0.186319 0.471212 -3.501311
v -0.388805 -0.293431 -1.437783
v -0.483782 -0.001363 -1.435226
v -0.551701 -0.001363 -1.405975
v -0.443802 -0.333170 -1.408880
v 0.186319 0.471212 -3.501311
v 0.179417 0.471212 -2.761825
v 0.428068 0.290704 -2.768521
v 0.434971 0.290704 -3.508005
v 0.179417 0.471212 -2.761825
v -0.127935 0.471212 -2.753551
v -0.148587 0.535511 -2.780416
v 0.200582 0.535510 -2.789818
v 0.434971 0.290704 -3.508005
v 0.428068 0.290704 -2.768521
v 0.523045 -0.001364 -2.771079
v 0.529947 -0.001364 -3.510562
v 0.510826 -0.001364 -1.462007
v 0.415849 -0.293431 -1.459450
v 0.470333 -0.333170 -1.433496
v 0.578232 -0.001364 -1.436400
v 0.529947 -0.001364 -3.510562
v 0.523045 -0.001364 -2.771079
v 0.428068 -0.293431 -2.768521
v 0.434971 -0.293431 -3.508005
v -0.471563 -0.001363 -2.744296
v -0.376587 -0.293431 -2.746855
v -0.431072 -0.333170 -2.772810
v -0.538970 -0.001363 -2.769904
v 0.434971 -0.293431 -3.508005
v 0.428068 -0.293431 -2.768521
v 0.179417 -0.473939 -2.761825
v 0.186319 -0.473939 -3.501310
v -0.388805 0.290704 -1.437783
v -0.140153 0.471212 -1.444478
v -0.161318 0.535511 -1.416487
v -0.443802 0.330443 -1.408880
v 0.186319 -0.473939 -3.501310
v 0.179417 -0.473939 -2.761825
v -0.127935 -0.473939 -2.753551
v -0.121032 -0.473939 -3.493033
v 0.428068 -0.293431 -2.768521
v 0.523045 -0.001364 -2.771079
v 0.590964 -0.001364 -2.800329
v 0.483065 -0.333170 -2.797424
v -0.121032 -0.473939 -3.493033
v -0.127935 -0.473939 -2.753551
v -0.376587 -0.293431 -2.746855
v -0.369684 -0.293431 -3.486338
v -0.140154 -0.473939 -1.444478
v -0.388805 -0.293431 -1.437783
v -0.443802 -0.333170 -1.408880
v -0.161319 -0.538237 -1.416487
v -0.369684 -0.293431 -3.486338
v -0.376587 -0.293431 -2.746855
v -0.471563 -0.001363 -2.744296
v -0.464661 -0.001363 -3.483781
v -0.127935 0.471212 -2.753551
v -0.376586 0.290704 -2.746855
v -0.431071 0.330443 -2.772810
v -0.148587 0.535511 -2.780416
v -0.431493 0.328934 -2.504915
v -0.150294 0.533068 -2.512488
v -0.150316 0.535511 -2.595228
v -0.432800 0.330443 -2.587621
v -0.440490 0.330443 -1.763719
v -0.439222 0.328934 -1.676885
v -0.158023 0.533068 -1.684458
v -0.158006 0.535511 -1.771326
v -0.153210 0.535511 -2.285176
v -0.156696 0.535511 -1.911725
v 0.192473 0.535510 -1.921127
v 0.195959 0.535510 -2.294580
v 0.195959 0.535510 -2.294580
v 0.192473 0.535510 -1.921127
v 0.474957 0.330443 -1.928734
v 0.478443 0.330443 -2.302185
v 0.478443 0.330443 -2.302185
v 0.474957 0.330443 -1.928734
v 0.582856 -0.001364 -1.931640
v 0.586342 -0.001364 -2.305091
v 0.586342 -0.001364 -2.305091
v 0.582856 -0.001364 -1.931640
v 0.474957 -0.333170 -1.928734
v 0.478443 -0.333170 -2.302185
v 0.478443 -0.333170 -2.302185
v 0.474957 -0.333170 -1.928734
v 0.192473 -0.538238 -1.921127
v 0.195958 -0.538238 -2.294580
v 0.195958 -0.538238 -2.294580
v 0.192473 -0.538238 -1.921127
v -0.156697 -0.538237 -1.911725
v -0.153210 -0.538237 -2.285176
v -0.153210 -0.538237 -2.285176
v -0.156697 -0.538237 -1.911725
v -0.439180 -0.333170 -1.904118
v -0.435694 -0.333170 -2.277571
v -0.548389 -0.001363 -1.760815
v -0.546631 -0.001363 -1.673994
v -0.439222 0.328934 -1.676885
v -0.440490 0.330443 -1.763719
v 0.415849 -0.293431 -1.459450
v 0.167197 -0.473939 -1.452754
v 0.187850 -0.538238 -1.425888
v 0.470333 -0.333170 -1.433496
v 0.428068 0.290704 -2.768521
v 0.179417 0.471212 -2.761825
v 0.200582 0.535510 -2.789818
v 0.483065 0.330443 -2.797424
v -0.127935 -0.473939 -2.753551
v 0.179417 -0.473939 -2.761825
v 0.200582 -0.538238 -2.789818
v -0.148587 -0.538237 -2.780416
v 0.167197 0.471212 -1.452754
v 0.415850 0.290704 -1.459450
v 0.470334 0.330443 -1.433496
v 0.187850 0.535510 -1.425888
v -0.376586 0.290704 -2.746855
v -0.471563 -0.001363 -2.744296
v -0.538970 -0.001363 -2.769904
v -0.431071 0.330443 -2.772810
v 0.167197 -0.473939 -1.452754
v -0.140154 -0.473939 -1.444478
v -0.161319 -0.538237 -1.416487
v 0.187850 -0.538238 -1.425888
v 0.523045 -0.001364 -2.771079
v 0.428068 0.290704 -2.768521
v 0.483065 0.330443 -2.797424
v 0.590964 -0.001364 -2.800329
v -0.483782 -0.001363 -1.435226
v -0.388805 0.290704 -1.437783
v -0.443802 0.330443 -1.408880
v -0.551701 -0.001363 -1.405975
v -0.376587 -0.293431 -2.746855
v -0.127935 -0.473939 -2.753551
v -0.148587 -0.538237 -2.780416
v -0.431072 -0.333170 -2.772810
v 0.415850 0.290704 -1.459450
v 0.510826 -0.001364 -1.462007
v 0.578232 -0.001364 -1.436400
v 0.470334 0.330443 -1.433496
v -0.538901 -0.001363 -2.502024
v -0.542283 -0.001363 -2.415066
v -0.434383 0.330443 -2.417970
v -0.431493 0.328934 -2.504915
v -0.431493 -0.331660 -2.504915
v -0.538901 -0.001363 -2.502024
v -0.540699 -0.001363 -2.584717
v -0.432800 -0.333170 -2.587621
v -0.442074 -0.333170 -1.594068
v -0.549973 -0.001363 -1.591162
v -0.546631 -0.001363 -1.673994
v -0.439223 -0.331660 -1.676885
v -0.150295 -0.535795 -2.512488
v -0.431493 -0.331660 -2.504915
v -0.432800 -0.333170 -2.587621
v -0.150316 -0.538237 -2.595228
v -0.159590 -0.538237 -1.601675
v -0.442074 -0.333170 -1.594068
v -0.439223 -0.331660 -1.676885
v -0.158024 -0.535795 -1.684458
v 0.197287 -0.535796 -2.521847
v -0.150295 -0.535795 -2.512488
v -0.150316 -0.538237 -2.595228
v 0.198853 -0.538238 -2.604630
v 0.189578 -0.538238 -1.611077
v -0.159590 -0.538237 -1.601675
v -0.158024 -0.535795 -1.684458
v 0.189558 -0.535796 -1.693817
v 0.478485 -0.331661 -2.529418
v 0.197287 -0.535796 -2.521847
v 0.198853 -0.538238 -2.604630
v 0.481337 -0.333170 -2.612237
v 0.472063 -0.333170 -1.618682
v 0.189578 -0.538238 -1.611077
v 0.189558 -0.535796 -1.693817
v 0.470756 -0.331661 -1.701389
v 0.585894 -0.001364 -2.532311
v 0.478485 -0.331661 -2.529418
v 0.481337 -0.333170 -2.612237
v 0.589236 -0.001364 -2.615143
v 0.579962 -0.001364 -1.621588
v 0.472063 -0.333170 -1.618682
v 0.470756 -0.331661 -1.701389
v 0.578165 -0.001364 -1.704281
v 0.478485 0.328933 -2.529418
v 0.585894 -0.001364 -2.532311
v 0.589236 -0.001364 -2.615143
v 0.481337 0.330443 -2.612237
v 0.472063 0.330443 -1.618682
v 0.579962 -0.001364 -1.621588
v 0.578165 -0.001364 -1.704281
v 0.470757 0.328933 -1.701389
v 0.197287 0.533068 -2.521847
v 0.478485 0.328933 -2.529418
v 0.481337 0.330443 -2.612237
v 0.198853 0.535510 -2.604630
v 0.189579 0.535510 -1.611077
v 0.472063 0.330443 -1.618682
v 0.470757 0.328933 -1.701389
v 0.189558 0.533068 -1.693817
v -0.150294 0.533068 -2.512488
v 0.197287 0.533068 -2.521847
v 0.198853 0.535510 -2.604630
v -0.150316 0.535511 -2.595228
v -0.443385 0.330443 -1.453669
v -0.443802 0.330443 -1.408880
v -0.161318 0.535511 -1.416487
v -0.160900 0.535511 -1.461274
v -0.159590 0.535511 -1.601675
v 0.189579 0.535510 -1.611077
v 0.189558 0.533068 -1.693817
v -0.158023 0.533068 -1.684458
v -0.435693 0.330443 -2.277570
v -0.439180 0.330443 -1.904118
v -0.156696 0.535511 -1.911725
v -0.153210 0.535511 -2.285176
v -0.431072 -0.333170 -2.772810
v -0.431489 -0.333170 -2.728022
v -0.539388 -0.001363 -2.725116
v -0.538970 -0.001363 -2.769904
v -0.443385 -0.333170 -1.453669
v -0.443802 -0.333170 -1.408880
v -0.551701 -0.001363 -1.405975
v -0.551284 -0.001363 -1.450763
v -0.148587 -0.538237 -2.780416
v -0.149006 -0.538237 -2.735627
v -0.431489 -0.333170 -2.728022
v -0.431072 -0.333170 -2.772810
v -0.160900 -0.538237 -1.461274
v -0.161319 -0.538237 -1.416487
v -0.443802 -0.333170 -1.408880
v -0.443385 -0.333170 -1.453669
v 0.200582 -0.538238 -2.789818
v 0.200163 -0.538238 -2.745029
v -0.149006 -0.538237 -2.735627
v -0.148587 -0.538237 -2.780416
v 0.188268 -0.538238 -1.470677
v 0.187850 -0.538238 -1.425888
v -0.161319 -0.538237 -1.416487
v -0.160900 -0.538237 -1.461274
v 0.483065 -0.333170 -2.797424
v 0.482647 -0.333170 -2.752636
v 0.200163 -0.538238 -2.745029
v 0.200582 -0.538238 -2.789818
v 0.470752 -0.333170 -1.478283
v 0.470333 -0.333170 -1.433496
v 0.187850 -0.538238 -1.425888
v 0.188268 -0.538238 -1.470677
v 0.590964 -0.001364 -2.800329
v 0.590546 -0.001364 -2.755542
v 0.482647 -0.333170 -2.752636
v 0.483065 -0.333170 -2.797424
v 0.578651 -0.001364 -1.481189
v 0.578232 -0.001364 -1.436400
v 0.470333 -0.333170 -1.433496
v 0.470752 -0.333170 -1.478283
v 0.483065 0.330443 -2.797424
v 0.482647 0.330443 -2.752636
v 0.590546 -0.001364 -2.755542
v 0.590964 -0.001364 -2.800329
v 0.470752 0.330443 -1.478283
v 0.470334 0.330443 -1.433496
v 0.578232 -0.001364 -1.436400
v 0.578651 -0.001364 -1.481189
v 0.200582 0.535510 -2.789818
v 0.200163 0.535510 -2.745029
v 0.482647 0.330443 -2.752636
v 0.483065 0.330443 -2.797424
v 0.188269 0.535510 -1.470677
v 0.187850 0.535510 -1.425888
v 0.470334 0.330443 -1.433496
v 0.470752 0.330443 -1.478283
v -0.148587 0.535511 -2.780416
v -0.149005 0.535511 -2.735627
v 0.200163 0.535510 -2.745029
v 0.200582 0.535510 -2.789818
v -0.160900 0.535511 -1.461274
v -0.161318 0.535511 -1.416487
v 0.187850 0.535510 -1.425888
v 0.188269 0.535510 -1.470677
v -0.431071 0.330443 -2.772810
v -0.431489 0.330443 -2.728022
v -0.149005 0.535511 -2.735627
v -0.148587 0.535511 -2.780416
v -0.551284 -0.001363 -1.450763
v -0.551701 -0.001363 -1.405975
v -0.443802 0.330443 -1.408880
v -0.443385 0.330443 -1.453669
v -0.538970 -0.001363 -2.769904
v -0.539388 -0.001363 -2.725116
v -0.431489 0.330443 -2.728022
v -0.431071 0.330443 -2.772810
v -0.442074 0.330443 -1.594068
v -0.159590 0.535511 -1.601675
v -0.158023 0.533068 -1.684458
v -0.439222 0.328934 -1.676885
v -0.538901 -0.001363 -2.502024
v -0.431493 0.328934 -2.504915
v -0.432800 0.330443 -2.587621
v -0.540699 -0.001363 -2.584717
v -0.158006 0.535511 -1.771326
v -0.158023 0.533068 -1.684458
v 0.189558 0.533068 -1.693817
v 0.191162 0.535510 -1.780728
v -0.431493 0.328934 -2.504915
v -0.434383 0.330443 -2.417970
v -0.151899 0.535511 -2.425577
v -0.150294 0.533068 -2.512488
v -0.543593 -0.001363 -2.274665
v -0.547079 -0.001363 -1.901214
v -0.439180 0.330443 -1.904118
v -0.435693 0.330443 -2.277570
v -0.440490 -0.333170 -1.763719
v -0.439223 -0.331660 -1.676885
v -0.546631 -0.001363 -1.673994
v -0.548389 -0.001363 -1.760815
v -0.521657 -0.001363 -2.736369
v -0.417125 -0.322815 -2.739183
v -0.418636 -0.322815 -2.577228
v -0.523168 -0.001363 -2.574414
v -0.150295 -0.535795 -2.512488
v -0.151899 -0.538237 -2.425577
v -0.434384 -0.333170 -2.417970
v -0.431493 -0.331660 -2.504915
v -0.158007 -0.538237 -1.771326
v -0.158024 -0.535795 -1.684458
v -0.439223 -0.331660 -1.676885
v -0.440490 -0.333170 -1.763719
v 0.197287 -0.535796 -2.521847
v 0.197269 -0.538238 -2.434979
v -0.151899 -0.538237 -2.425577
v -0.150295 -0.535795 -2.512488
v 0.191162 -0.538238 -1.780728
v 0.189558 -0.535796 -1.693817
v -0.158024 -0.535795 -1.684458
v -0.158007 -0.538237 -1.771326
v 0.478485 -0.331661 -2.529418
v 0.479753 -0.333170 -2.442586
v 0.197269 -0.538238 -2.434979
v 0.197287 -0.535796 -2.521847
v 0.473646 -0.333170 -1.788335
v 0.470756 -0.331661 -1.701389
v 0.189558 -0.535796 -1.693817
v 0.191162 -0.538238 -1.780728
v 0.585894 -0.001364 -2.532311
v 0.587652 -0.001364 -2.445490
v 0.479753 -0.333170 -2.442586
v 0.478485 -0.331661 -2.529418
v 0.581545 -0.001364 -1.791239
v 0.578165 -0.001364 -1.704281
v 0.470756 -0.331661 -1.701389
v 0.473646 -0.333170 -1.788335
v 0.478485 0.328933 -2.529418
v 0.479753 0.330443 -2.442586
v 0.587652 -0.001364 -2.445490
v 0.585894 -0.001364 -2.532311
v 0.473646 0.330443 -1.788335
v 0.470757 0.328933 -1.701389
v 0.578165 -0.001364 -1.704281
v 0.581545 -0.001364 -1.791239
v 0.197287 0.533068 -2.521847
v 0.197270 0.535510 -2.434979
v 0.479753 0.330443 -2.442586
v 0.478485 0.328933 -2.529418
v 0.191162 0.535510 -1.780728
v 0.189558 0.533068 -1.693817
v 0.470757 0.328933 -1.701389
v 0.473646 0.330443 -1.788335
v -0.150294 0.533068 -2.512488
v -0.151899 0.535511 -2.425577
v 0.197270 0.535510 -2.434979
v 0.197287 0.533068 -2.521847
v -0.431493 -0.331660 -2.504915
v -0.434384 -0.333170 -2.417970
v -0.542283 -0.001363 -2.415066
v -0.538901 -0.001363 -2.502024
v -0.435694 -0.333170 -2.277571
v -0.439180 -0.333170 -1.904118
v -0.547079 -0.001363 -1.901214
v -0.543593 -0.001363 -2.274665
v 0.481337 -0.333170 -2.612237
v 0.198853 -0.538238 -2.604630
v 0.193304 -0.521484 -2.593706
v 0.466973 -0.322816 -2.601074
v -0.160900 0.535511 -1.461274
v 0.188269 0.535510 -1.470677
v 0.182719 0.518756 -1.459752
v -0.155553 0.518757 -1.450644
v -0.440490 -0.333170 -1.763719
v -0.548389 -0.001363 -1.760815
v -0.530859 -0.001363 -1.750512
v -0.426327 -0.322815 -1.753326
v 0.474957 -0.333170 -1.928734
v 0.582856 -0.001364 -1.931640
v 0.565326 -0.001364 -1.941941
v 0.460793 -0.322816 -1.939127
v 0.200163 -0.538238 -2.745029
v 0.482647 -0.333170 -2.752636
v 0.468484 -0.322815 -2.763029
v 0.194815 -0.521484 -2.755661
v -0.150316 0.535511 -2.595228
v 0.198853 0.535510 -2.604630
v 0.193304 0.518756 -2.593706
v -0.144968 0.518757 -2.584598
v 0.581545 -0.001364 -1.791239
v 0.473646 -0.333170 -1.788335
v 0.459281 -0.322816 -1.777172
v 0.563813 -0.001364 -1.779988
v -0.159590 -0.538237 -1.601675
v 0.189578 -0.538238 -1.611077
v 0.184232 -0.521484 -1.621707
v -0.154041 -0.521483 -1.612598
v -0.542283 -0.001363 -2.415066
v -0.434384 -0.333170 -2.417970
v -0.420020 -0.322815 -2.429133
v -0.524551 -0.001363 -2.426317
v 0.188268 -0.538238 -1.470677
v -0.160900 -0.538237 -1.461274
v -0.155554 -0.521483 -1.450644
v 0.182719 -0.521484 -1.459752
v 0.200163 0.535510 -2.745029
v -0.149005 0.535511 -2.735627
v -0.143457 0.518757 -2.746553
v 0.194816 0.518756 -2.755661
v 0.479753 -0.333170 -2.442586
v 0.587652 -0.001364 -2.445490
v 0.570122 -0.001364 -2.455793
v 0.465590 -0.322816 -2.452979
v 0.472063 0.330443 -1.618682
v 0.189579 0.535510 -1.611077
v 0.184232 0.518756 -1.621707
v 0.457899 0.320088 -1.629077
v -0.435694 -0.333170 -2.277571
v -0.543593 -0.001363 -2.274665
v -0.526063 -0.001363 -2.264364
v -0.421531 -0.322815 -2.267178
v 0.586342 -0.001364 -2.305091
v 0.478443 -0.333170 -2.302185
v 0.464078 -0.322816 -2.291024
v 0.568611 -0.001364 -2.293838
v 0.198853 -0.538238 -2.604630
v -0.150316 -0.538237 -2.595228
v -0.144969 -0.521483 -2.584598
v 0.193304 -0.521484 -2.593706
v 0.188269 0.535510 -1.470677
v 0.470752 0.330443 -1.478283
v 0.456388 0.320088 -1.467122
v 0.182719 0.518756 -1.459752
v -0.156696 0.535511 -1.911725
v -0.439180 0.330443 -1.904118
v -0.424816 0.320088 -1.915281
v -0.151147 0.518757 -1.922649
v 0.192473 -0.538238 -1.921127
v 0.474957 -0.333170 -1.928734
v 0.460793 -0.322816 -1.939127
v 0.187125 -0.521484 -1.931758
v -0.439180 0.330443 -1.904118
v -0.547079 -0.001363 -1.901214
v -0.529348 -0.001363 -1.912467
v -0.424816 0.320088 -1.915281
v -0.149006 -0.538237 -2.735627
v 0.200163 -0.538238 -2.745029
v 0.194815 -0.521484 -2.755661
v -0.143457 -0.521483 -2.746553
v 0.198853 0.535510 -2.604630
v 0.481337 0.330443 -2.612237
v 0.466973 0.320088 -2.601074
v 0.193304 0.518756 -2.593706
v 0.473646 -0.333170 -1.788335
v 0.191162 -0.538238 -1.780728
v 0.185614 -0.521484 -1.769804
v 0.459281 -0.322816 -1.777172
v -0.548389 -0.001363 -1.760815
v -0.440490 0.330443 -1.763719
v -0.426327 0.320088 -1.753326
v -0.530859 -0.001363 -1.750512
v -0.442074 -0.333170 -1.594068
v -0.159590 -0.538237 -1.601675
v -0.154041 -0.521483 -1.612598
v -0.427710 -0.322815 -1.605231
v -0.440490 0.330443 -1.763719
v -0.158006 0.535511 -1.771326
v -0.152658 0.518757 -1.760695
v -0.426327 0.320088 -1.753326
v -0.434383 0.330443 -2.417970
v -0.542283 -0.001363 -2.415066
v -0.524551 -0.001363 -2.426317
v -0.420019 0.320088 -2.429132
v -0.160900 -0.538237 -1.461274
v -0.443385 -0.333170 -1.453669
v -0.429221 -0.322815 -1.443274
v -0.155554 -0.521483 -1.450644
v 0.482647 0.330443 -2.752636
v 0.200163 0.535510 -2.745029
v 0.194816 0.518756 -2.755661
v 0.468484 0.320088 -2.763029
v 0.197269 -0.538238 -2.434979
v 0.479753 -0.333170 -2.442586
v 0.465590 -0.322816 -2.452979
v 0.191922 -0.521484 -2.445609
v -0.543593 -0.001363 -2.274665
v -0.435693 0.330443 -2.277570
v -0.421531 0.320088 -2.267178
v -0.526063 -0.001363 -2.264364
v 0.579962 -0.001364 -1.621588
v 0.472063 0.330443 -1.618682
v 0.457899 0.320088 -1.629077
v 0.562431 -0.001364 -1.631891
v -0.151899 0.535511 -2.425577
v -0.434383 0.330443 -2.417970
v -0.420019 0.320088 -2.429132
v -0.146351 0.518757 -2.436501
v 0.478443 -0.333170 -2.302185
v 0.195958 -0.538238 -2.294580
v 0.190410 -0.521484 -2.283654
v 0.464078 -0.322816 -2.291024
v 0.192473 0.535510 -1.921127
v -0.156696 0.535511 -1.911725
v -0.151147 0.518757 -1.922649
v 0.187126 0.518756 -1.931757
v -0.150316 -0.538237 -2.595228
v -0.432800 -0.333170 -2.587621
v -0.418636 -0.322815 -2.577228
v -0.144969 -0.521483 -2.584598
v 0.470752 0.330443 -1.478283
v 0.578651 -0.001364 -1.481189
v 0.560920 -0.001364 -1.469936
v 0.456388 0.320088 -1.467122
v -0.158006 0.535511 -1.771326
v 0.191162 0.535510 -1.780728
v 0.185614 0.518756 -1.769804
v -0.152658 0.518757 -1.760695
v -0.435693 0.330443 -2.277570
v -0.153210 0.535511 -2.285176
v -0.147862 0.518757 -2.274546
v -0.421531 0.320088 -2.267178
v -0.156697 -0.538237 -1.911725
v 0.192473 -0.538238 -1.921127
v 0.187125 -0.521484 -1.931758
v -0.151147 -0.521483 -1.922649
v -0.549973 -0.001363 -1.591162
v -0.442074 0.330443 -1.594068
v -0.439222 0.328934 -1.676885
v -0.546631 -0.001363 -1.673994
v -0.429221 -0.322815 -1.443274
v -0.533753 -0.001363 -1.440460
v -0.532241 -0.001363 -1.602415
v -0.427710 -0.322815 -1.605231
v -0.417125 -0.322815 -2.739183
v -0.143457 -0.521483 -2.746553
v -0.144969 -0.521483 -2.584598
v -0.418636 -0.322815 -2.577228
v -0.155554 -0.521483 -1.450644
v -0.429221 -0.322815 -1.443274
v -0.427710 -0.322815 -1.605231
v -0.154041 -0.521483 -1.612598
v -0.143457 -0.521483 -2.746553
v 0.194815 -0.521484 -2.755661
v 0.193304 -0.521484 -2.593706
v -0.144969 -0.521483 -2.584598
v 0.182719 -0.521484 -1.459752
v -0.155554 -0.521483 -1.450644
v -0.154041 -0.521483 -1.612598
v 0.184232 -0.521484 -1.621707
v 0.194815 -0.521484 -2.755661
v 0.468484 -0.322815 -2.763029
v 0.466973 -0.322816 -2.601074
v 0.193304 -0.521484 -2.593706
v 0.456388 -0.322816 -1.467122
v 0.182719 -0.521484 -1.459752
v 0.184232 -0.521484 -1.621707
v 0.457899 -0.322816 -1.629077
v 0.468484 -0.322815 -2.763029
v 0.573016 -0.001364 -2.765845
v 0.571505 -0.001364 -2.603890
v 0.466973 -0.322816 -2.601074
v 0.560920 -0.001364 -1.469936
v 0.456388 -0.322816 -1.467122
v 0.457899 -0.322816 -1.629077
v 0.562431 -0.001364 -1.631891
v 0.573016 -0.001364 -2.765845
v 0.468484 0.320088 -2.763029
v 0.466973 0.320088 -2.601074
v 0.571505 -0.001364 -2.603890
v 0.456388 0.320088 -1.467122
v 0.560920 -0.001364 -1.469936
v 0.562431 -0.001364 -1.631891
v 0.457899 0.320088 -1.629077
v 0.468484 0.320088 -2.763029
v 0.194816 0.518756 -2.755661
v 0.193304 0.518756 -2.593706
v 0.466973 0.320088 -2.601074
v 0.182719 0.518756 -1.459752
v 0.456388 0.320088 -1.467122
v 0.457899 0.320088 -1.629077
v 0.184232 0.518756 -1.621707
v 0.194816 0.518756 -2.755661
v -0.143457 0.518757 -2.746553
v -0.144968 0.518757 -2.584598
v 0.193304 0.518756 -2.593706
v -0.155553 0.518757 -1.450644
v 0.182719 0.518756 -1.459752
v 0.184232 0.518756 -1.621707
v -0.154041 0.518757 -1.612598
v -0.143457 0.518757 -2.746553
v -0.417125 0.320088 -2.739183
v -0.418636 0.320088 -2.577228
v -0.144968 0.518757 -2.584598
v -0.429221 0.320088 -1.443274
v -0.155553 0.518757 -1.450644
v -0.154041 0.518757 -1.612598
v -0.427709 0.320088 -1.605230
v -0.417125 0.320088 -2.739183
v -0.521657 -0.001363 -2.736369
v -0.523168 -0.001363 -2.574414
v -0.418636 0.320088 -2.577228
v -0.533753 -0.001363 -1.440460
v -0.429221 0.320088 -1.443274
v -0.427709 0.320088 -1.605230
v -0.532241 -0.001363 -1.602415
v -0.421531 0.320088 -2.267178
v -0.147862 0.518757 -2.274546
v -0.146351 0.518757 -2.436501
v -0.420019 0.320088 -2.429132
v -0.426327 0.320088 -1.753326
v -0.152658 0.518757 -1.760695
v -0.151147 0.518757 -1.922649
v -0.424816 0.320088 -1.915281
v -0.421531 -0.322815 -2.267178
v -0.526063 -0.001363 -2.264364
v -0.524551 -0.001363 -2.426317
v -0.420020 -0.322815 -2.429133
v -0.426327 -0.322815 -1.753326
v -0.530859 -0.001363 -1.750512
v -0.529348 -0.001363 -1.912467
v -0.424816 -0.322815 -1.915281
v -0.147863 -0.521483 -2.274546
v -0.421531 -0.322815 -2.267178
v -0.420020 -0.322815 -2.429133
v -0.146351 -0.521483 -2.436501
v -0.152659 -0.521483 -1.760695
v -0.426327 -0.322815 -1.753326
v -0.424816 -0.322815 -1.915281
v -0.151147 -0.521483 -1.922649
v 0.190410 -0.521484 -2.283654
v -0.147863 -0.521483 -2.274546
v -0.146351 -0.521483 -2.436501
v 0.191922 -0.521484 -2.445609
v 0.185614 -0.521484 -1.769804
v -0.152659 -0.521483 -1.760695
v -0.151147 -0.521483 -1.922649
v 0.187125 -0.521484 -1.931758
v 0.464078 -0.322816 -2.291024
v 0.190410 -0.521484 -2.283654
v 0.191922 -0.521484 -2.445609
v 0.465590 -0.322816 -2.452979
v 0.459281 -0.322816 -1.777172
v 0.185614 -0.521484 -1.769804
v 0.187125 -0.521484 -1.931758
v 0.460793 -0.322816 -1.939127
v 0.568611 -0.001364 -2.293838
v 0.464078 -0.322816 -2.291024
v 0.465590 -0.322816 -2.452979
v 0.570122 -0.001364 -2.455793
v 0.563813 -0.001364 -1.779988
v 0.459281 -0.322816 -1.777172
v 0.460793 -0.322816 -1.939127
v 0.565326 -0.001364 -1.941941
v 0.464078 0.320088 -2.291024
v 0.568611 -0.001364 -2.293838
v 0.570122 -0.001364 -2.455793
v 0.465591 0.320088 -2.452979
v 0.459282 0.320088 -1.777172
v 0.563813 -0.001364 -1.779988
v 0.565326 -0.001364 -1.941941
v 0.460793 0.320088 -1.939127
v 0.190410 0.518756 -2.283654
v 0.464078 0.320088 -2.291024
v 0.465591 0.320088 -2.452979
v 0.191922 0.518756 -2.445609
v 0.185614 0.518756 -1.769804
v 0.459282 0.320088 -1.777172
v 0.460793 0.320088 -1.939127
v 0.187126 0.518756 -1.931757
v -0.147862 0.518757 -2.274546
v 0.190410 0.518756 -2.283654
v 0.191922 0.518756 -2.445609
v -0.146351 0.518757 -2.436501
v -0.152658 0.518757 -1.760695
v 0.185614 0.518756 -1.769804
v 0.187126 0.518756 -1.931757
v -0.151147 0.518757 -1.922649
v -0.526063 -0.001363 -2.264364
v -0.421531 0.320088 -2.267178
v -0.420019 0.320088 -2.429132
v -0.524551 -0.001363 -2.426317
v -0.530859 -0.001363 -1.750512
v -0.426327 0.320088 -1.753326
v -0.424816 0.320088 -1.915281
v -0.529348 -0.001363 -1.912467
v 0.478443 0.330443 -2.302185
v 0.586342 -0.001364 -2.305091
v 0.568611 -0.001364 -2.293838
v 0.464078 0.320088 -2.291024
v -0.547079 -0.001363 -1.901214
v -0.439180 -0.333170 -1.904118
v -0.424816 -0.322815 -1.915281
v -0.529348 -0.001363 -1.912467
v 0.189579 0.535510 -1.611077
v -0.159590 0.535511 -1.601675
v -0.154041 0.518757 -1.612598
v 0.184232 0.518756 -1.621707
v 0.587652 -0.001364 -2.445490
v 0.479753 0.330443 -2.442586
v 0.465591 0.320088 -2.452979
v 0.570122 -0.001364 -2.455793
v -0.149005 0.535511 -2.735627
v -0.431489 0.330443 -2.728022
v -0.417125 0.320088 -2.739183
v -0.143457 0.518757 -2.746553
v 0.470752 -0.333170 -1.478283
v 0.188268 -0.538238 -1.470677
v 0.182719 -0.521484 -1.459752
v 0.456388 -0.322816 -1.467122
v -0.153210 -0.538237 -2.285176
v -0.435694 -0.333170 -2.277571
v -0.421531 -0.322815 -2.267178
v -0.147863 -0.521483 -2.274546
v 0.189578 -0.538238 -1.611077
v 0.472063 -0.333170 -1.618682
v 0.457899 -0.322816 -1.629077
v 0.184232 -0.521484 -1.621707
v 0.473646 0.330443 -1.788335
v 0.581545 -0.001364 -1.791239
v 0.563813 -0.001364 -1.779988
v 0.459282 0.320088 -1.777172
v -0.434384 -0.333170 -2.417970
v -0.151899 -0.538237 -2.425577
v -0.146351 -0.521483 -2.436501
v -0.420020 -0.322815 -2.429133
v -0.432800 0.330443 -2.587621
v -0.150316 0.535511 -2.595228
v -0.144968 0.518757 -2.584598
v -0.418636 0.320088 -2.577228
v 0.482647 -0.333170 -2.752636
v 0.590546 -0.001364 -2.755542
v 0.573016 -0.001364 -2.765845
v 0.468484 -0.322815 -2.763029
v 0.582856 -0.001364 -1.931640
v 0.474957 0.330443 -1.928734
v 0.460793 0.320088 -1.939127
v 0.565326 -0.001364 -1.941941
v -0.539388 -0.001363 -2.725116
v -0.431489 -0.333170 -2.728022
v -0.417125 -0.322815 -2.739183
v -0.521657 -0.001363 -2.736369
v -0.158007 -0.538237 -1.771326
v -0.440490 -0.333170 -1.763719
v -0.426327 -0.322815 -1.753326
v -0.152659 -0.521483 -1.760695
v -0.443385 0.330443 -1.453669
v -0.160900 0.535511 -1.461274
v -0.155553 0.518757 -1.450644
v -0.429221 0.320088 -1.443274
v 0.589236 -0.001364 -2.615143
v 0.481337 -0.333170 -2.612237
v 0.466973 -0.322816 -2.601074
v 0.571505 -0.001364 -2.603890
v 0.195959 0.535510 -2.294580
v 0.478443 0.330443 -2.302185
v 0.464078 0.320088 -2.291024
v 0.190410 0.518756 -2.283654
v -0.439180 -0.333170 -1.904118
v -0.156697 -0.538237 -1.911725
v -0.151147 -0.521483 -1.922649
v -0.424816 -0.322815 -1.915281
v -0.159590 0.535511 -1.601675
v -0.442074 0.330443 -1.594068
v -0.427709 0.320088 -1.605230
v -0.154041 0.518757 -1.612598
v -0.432800 -0.333170 -2.587621
v -0.540699 -0.001363 -2.584717
v -0.523168 -0.001363 -2.574414
v -0.418636 -0.322815 -2.577228
v 0.479753 0.330443 -2.442586
v 0.197270 0.535510 -2.434979
v 0.191922 0.518756 -2.445609
v 0.465591 0.320088 -2.452979
v -0.431489 0.330443 -2.728022
v -0.539388 -0.001363 -2.725116
v -0.521657 -0.001363 -2.736369
v -0.417125 0.320088 -2.739183
v 0.578651 -0.001364 -1.481189
v 0.470752 -0.333170 -1.478283
v 0.456388 -0.322816 -1.467122
v 0.560920 -0.001364 -1.469936
v 0.195958 -0.538238 -2.294580
v -0.153210 -0.538237 -2.285176
v -0.147863 -0.521483 -2.274546
v 0.190410 -0.521484 -2.283654
v -0.540699 -0.001363 -2.584717
v -0.432800 0.330443 -2.587621
v -0.418636 0.320088 -2.577228
v -0.523168 -0.001363 -2.574414
v 0.472063 -0.333170 -1.618682
v 0.579962 -0.001364 -1.621588
v 0.562431 -0.001364 -1.631891
v 0.457899 -0.322816 -1.629077
v -0.443385 -0.333170 -1.453669
v -0.551284 -0.001363 -1.450763
v -0.533753 -0.001363 -1.440460
v -0.429221 -0.322815 -1.443274
v 0.191162 0.535510 -1.780728
v 0.473646 0.330443 -1.788335
v 0.459282 0.320088 -1.777172
v 0.185614 0.518756 -1.769804
v -0.151899 -0.538237 -2.425577
v 0.197269 -0.538238 -2.434979
v 0.191922 -0.521484 -2.445609
v -0.146351 -0.521483 -2.436501
v -0.551284 -0.001363 -1.450763
v -0.443385 0.330443 -1.453669
v -0.429221 0.320088 -1.443274
v -0.533753 -0.001363 -1.440460
v 0.590546 -0.001364 -2.755542
v 0.482647 0.330443 -2.752636
v 0.468484 0.320088 -2.763029
v 0.573016 -0.001364 -2.765845
v 0.474957 0.330443 -1.928734
v 0.192473 0.535510 -1.921127
v 0.187126 0.518756 -1.931757
v 0.460793 0.320088 -1.939127
v -0.442074 0.330443 -1.594068
v -0.549973 -0.001363 -1.591162
v -0.532241 -0.001363 -1.602415
v -0.427709 0.320088 -1.605230
v -0.549973 -0.001363 -1.591162
v -0.442074 -0.333170 -1.594068
v -0.427710 -0.322815 -1.605231
v -0.532241 -0.001363 -1.602415
v -0.153210 0.535511 -2.285176
v 0.195959 0.535510 -2.294580
v 0.190410 0.518756 -2.283654
v -0.147862 0.518757 -2.274546
v 0.191162 -0.538238 -1.780728
v -0.158007 -0.538237 -1.771326
v -0.152659 -0.521483 -1.760695
v 0.185614 -0.521484 -1.769804
v 0.481337 0.330443 -2.612237
v 0.589236 -0.001364 -2.615143
v 0.571505 -0.001364 -2.603890
v 0.466973 0.320088 -2.601074
v -0.431489 -0.333170 -2.728022
v -0.149006 -0.538237 -2.735627
v -0.143457 -0.521483 -2.746553
v -0.417125 -0.322815 -2.739183
v 0.197270 0.535510 -2.434979
v -0.151899 0.535511 -2.425577
v -0.146351 0.518757 -2.436501
v 0.191922 0.518756 -2.445609
v -0.064966 0.022101 3.498041
v -0.072597 -0.001364 3.498246
v -0.064966 -0.024828 3.498041
v -0.044990 -0.039330 3.497503
v -0.020297 -0.039330 3.496839
v -0.000321 -0.024828 3.496301
v 0.007310 -0.001364 3.496095
v -0.000321 0.022101 3.496301
v -0.020297 0.036603 3.496839
v -0.044990 0.036603 3.497503
v -0.418724 -0.001363 -3.602013
v -0.332312 0.264367 -3.604341
v -0.106082 0.428598 -3.610431
v 0.173554 0.428598 -3.617962
v 0.399784 0.264367 -3.624053
v 0.486196 -0.001364 -3.626379
v 0.399784 -0.267094 -3.624053
v 0.173554 -0.431325 -3.617962
v -0.106082 -0.431325 -3.610431
v -0.332312 -0.267094 -3.604341
vn -0.9131 0.2994 0.2767
vn -0.5592 0.7807 0.2789
vn 0.0076 0.9592 0.2825
vn 0.5679 0.7717 0.2862
vn 0.9113 0.2938 0.2885
vn 0.9113 -0.2938 0.2885
vn 0.5679 -0.7717 0.2862
vn 0.0076 -0.9592 0.2825
vn -0.5592 -0.7807 0.2789
vn -0.9131 -0.2994 0.2767
vn 0.8942 -0.2937 -0.3378
vn -0.9510 -0.3092 -0.0089
vn -0.5876 -0.8092 -0.0055
vn -0.0000 -1.0000 -0.0000
vn 0.5876 -0.8092 0.0055
vn 0.9510 -0.3092 0.0089
vn 0.9510 0.3092 0.0089
vn 0.5876 0.8092 0.0055
vn -0.0000 1.0000 -0.0000
vn -0.5876 0.8092 -0.0055
vn -0.9510 0.3092 -0.0089
vn 0.8942 0.2937 -0.3378
vn 0.5466 0.7655 -0.3395
vn -0.8928 0.2873 -0.3469
vn -0.0092 0.9396 -0.3422
vn -0.5575 0.7551 -0.3451
vn -0.8928 -0.2873 -0.3469
vn -0.5575 -0.7551 -0.3451
vn -0.0092 -0.9396 -0.3422
vn 0.5466 -0.7655 -0.3395
vn 0.0248 -0.3922 0.9196
vn -0.2532 0.3149 -0.9147
vn 0.3927 0.1197 0.9118
vn -0.0248 -0.3922 -0.9196
vn -0.0248 -0.3922 -0.9195
vn -0.3524 0.1227 0.9278
vn 0.3524 0.1227 -0.9277
vn 0.3524 0.1227 -0.9278
vn 0.2532 -0.3149 0.9147
vn -0.3927 0.1197 -0.9118
vn 0.2532 0.3149 0.9147
vn 0.2072 -0.3197 -0.9246
vn 0.2072 -0.3198 -0.9246
vn -0.5869 0.8093 0.0240
vn -0.5869 0.8093 0.0226
vn -0.9508 0.3093 0.0193
vn -0.2072 0.3197 0.9246
vn -0.2072 0.3198 0.9246
vn -0.2532 -0.3149 -0.9147
vn -0.0248 0.3922 -0.9196
vn -0.2072 -0.3198 0.9246
vn -0.2072 -0.3197 0.9246
vn 0.3524 -0.1227 -0.9278
vn 0.0248 0.3922 0.9196
vn -0.3927 -0.1197 -0.9118
vn 0.3927 -0.1197 0.9118
vn 0.2072 0.3197 -0.9246
vn 0.2072 0.3198 -0.9246
vn -0.3524 -0.1227 0.9278
vn -0.3524 -0.1227 0.9277
vn -0.9504 0.3087 -0.0370
vn -0.9504 0.3087 -0.0369
vn -0.9507 -0.3093 0.0207
vn -0.9504 -0.3087 -0.0383
vn -0.5869 -0.8093 0.0240
vn -0.5869 -0.8093 0.0241
vn -0.5877 -0.8083 -0.0350
vn 0.0008 -0.9996 0.0295
vn -0.0008 -0.9996 -0.0295
vn 0.5877 -0.8083 0.0350
vn 0.5869 -0.8093 -0.0240
vn 0.9504 -0.3087 0.0383
vn 0.9504 -0.3087 0.0384
vn 0.9507 -0.3093 -0.0207
vn 0.9504 0.3087 0.0383
vn 0.9507 0.3093 -0.0207
vn 0.5877 0.8083 0.0350
vn 0.5869 0.8093 -0.0240
vn 0.0008 0.9996 0.0295
vn -0.0008 0.9996 -0.0295
vn -0.5877 0.8083 -0.0350
vn -0.9507 0.3093 0.0207
vn 0.0008 0.9996 0.0281
vn -0.5877 0.8084 -0.0336
vn -0.9508 -0.3093 0.0193
vn -0.5877 -0.8084 -0.0336
vn -0.5869 -0.8093 0.0226
vn -0.0008 -0.9996 -0.0281
vn 0.0008 -0.9996 0.0281
vn 0.5869 -0.8093 -0.0226
vn 0.5877 -0.8084 0.0336
vn 0.9508 -0.3093 -0.0193
vn 0.9504 -0.3087 0.0370
vn 0.9504 -0.3087 0.0369
vn 0.9508 0.3093 -0.0193
vn 0.9504 0.3087 0.0370
vn 0.9504 0.3087 0.0369
vn 0.5869 0.8093 -0.0226
vn 0.5877 0.8084 0.0336
vn -0.0008 0.9996 -0.0281
vn -0.9504 -0.3087 -0.0370
vn -0.3371 0.4334 -0.8358
vn -0.3371 0.4333 -0.8358
vn -0.0226 -0.5408 -0.8409
vn -0.0226 -0.5408 -0.8408
vn 0.4993 0.1698 -0.8496
vn -0.4993 0.1698 0.8496
vn -0.2980 0.4419 0.8462
vn -0.2979 0.4418 0.8462
vn -0.5285 0.1646 -0.8329
vn -0.5285 0.1646 -0.8328
vn 0.0226 0.5408 0.8409
vn 0.5285 0.1646 0.8329
vn 0.5285 0.1646 0.8328
vn 0.5285 0.1645 0.8329
vn -0.0226 0.5408 -0.8408
vn -0.0226 0.5408 -0.8409
vn 0.0226 -0.5408 0.8408
vn -0.2980 -0.4418 0.8462
vn -0.2979 -0.4418 0.8462
vn -0.3371 -0.4334 -0.8358
vn -0.3371 -0.4333 -0.8358
vn 0.3371 -0.4333 0.8358
vn 0.3371 -0.4334 0.8358
vn 0.5285 -0.1646 0.8328
vn 0.0226 0.5408 0.8408
vn 0.4993 -0.1698 -0.8496
vn 0.4994 -0.1698 -0.8496
vn 0.3371 0.4334 0.8358
vn 0.3371 0.4333 0.8358
vn 0.2979 -0.4418 -0.8462
vn 0.5285 -0.1646 0.8329
vn 0.2980 0.4418 -0.8462
vn -0.2980 -0.4419 0.8461
vn -0.2980 0.4418 0.8462
vn -0.4993 -0.1698 0.8496
vn 0.0226 -0.5408 0.8409
vn 0.2979 0.4418 -0.8462
vn -0.5285 -0.1646 -0.8328
vn 0.2980 -0.4418 -0.8462
vn 0.0226 0.5407 0.8409
vn -0.9504 0.3087 -0.0383
vn -0.9504 0.3087 -0.0384
vn -0.5285 -0.1646 -0.8329
vn -0.5286 0.1646 -0.8328
vn -0.4994 0.1698 0.8496
vn 0.4994 0.1698 -0.8496
vn 0.5286 0.1646 0.8328
vn 0.0269 -0.0000 0.9996
vn 0.0269 0.0001 0.9996
vn -0.0269 -0.0000 -0.9996
vt 0.582676 0.692360
vt 0.505096 0.781398
vt 0.508220 0.786279
vt 0.621562 0.753111
vt 0.508220 0.792074
vt 0.621562 0.825242
vt 0.505096 0.796954
vt 0.582676 0.885993
vt 0.499833 0.799381
vt 0.517174 0.916196
vt 0.494093 0.798588
vt 0.445722 0.906322
vt 0.489686 0.794825
vt 0.390866 0.859486
vt 0.488003 0.789280
vt 0.369913 0.790466
vt 0.489574 0.783702
vt 0.389475 0.721039
vt 0.445722 0.672030
vt 0.494093 0.779765
vt 0.499833 0.778971
vt 0.517174 0.662156
vt 0.297980 0.159785
vt 0.264678 0.209146
vt 0.272860 0.213203
vt 0.305459 0.166618
vt 0.698831 0.884938
vt 0.949259 0.884938
vt 0.949259 0.831974
vt 0.698831 0.831974
vt 0.698831 0.937901
vt 0.949259 0.937901
vt 0.698831 0.461227
vt 0.949259 0.461227
vt 0.949259 0.408263
vt 0.698831 0.408263
vt 0.698831 0.514191
vt 0.949259 0.514191
vt 0.698831 0.567155
vt 0.949259 0.567155
vt 0.698831 0.620118
vt 0.949259 0.620118
vt 0.698831 0.673082
vt 0.949259 0.673082
vt 0.698831 0.726046
vt 0.949259 0.726046
vt 0.698831 0.779010
vt 0.949259 0.779010
vt 0.348624 0.117334
vt 0.354510 0.126915
vt 0.415657 0.087569
vt 0.418999 0.099592
vt 0.677230 0.130097
vt 0.585725 0.089103
vt 0.581354 0.103841
vt 0.668053 0.144487
vt 0.496283 0.076357
vt 0.496164 0.090207
vt 0.762489 0.201869
vt 0.748199 0.214423
vt 0.833618 0.308275
vt 0.812424 0.314563
vt 0.248086 0.260276
vt 0.246759 0.314563
vt 0.255092 0.312246
vt 0.256242 0.261696
vt 0.697165 0.095765
vt 0.594446 0.054402
vt 0.287057 0.715681
vt 0.286782 0.667634
vt 0.254454 0.667779
vt 0.254728 0.715827
vt 0.495203 0.044137
vt 0.066449 0.476032
vt 0.066025 0.524119
vt 0.098323 0.524003
vt 0.097193 0.475793
vt 0.406707 0.059935
vt 0.287124 0.859905
vt 0.287549 0.811819
vt 0.255251 0.811934
vt 0.256380 0.860145
vt 0.334000 0.095630
vt 0.066791 0.668302
vt 0.067065 0.716350
vt 0.099393 0.716204
vt 0.099118 0.668156
vt 0.279916 0.144628
vt 0.286226 0.571536
vt 0.285932 0.523520
vt 0.253722 0.523641
vt 0.253911 0.571682
vt 0.245273 0.200516
vt 0.067640 0.812417
vt 0.067368 0.860147
vt 0.099092 0.860220
vt 0.099850 0.812297
vt 0.229174 0.257483
vt 0.287333 0.763734
vt 0.254995 0.763877
vt 0.227434 0.313967
vt 0.066241 0.572202
vt 0.098578 0.572058
vt 0.873831 0.280028
vt 0.793988 0.171362
vt 0.291054 0.907424
vt 0.259203 0.910912
vt 0.067344 0.764400
vt 0.099660 0.764254
vt 0.133467 0.764200
vt 0.133201 0.716148
vt 0.127604 0.716148
vt 0.127869 0.764200
vt 0.215321 0.763938
vt 0.221182 0.763932
vt 0.220919 0.715884
vt 0.215058 0.715890
vt 0.164137 0.716090
vt 0.189984 0.715942
vt 0.189711 0.667894
vt 0.163863 0.668041
vt 0.189436 0.619845
vt 0.163588 0.619993
vt 0.189168 0.571794
vt 0.163327 0.571946
vt 0.188998 0.523722
vt 0.163193 0.523896
vt 0.189061 0.475541
vt 0.164075 0.475608
vt 0.191237 0.425267
vt 0.163159 0.425181
vt 0.162335 0.910670
vt 0.190413 0.910756
vt 0.189497 0.860330
vt 0.164512 0.860396
vt 0.215501 0.811995
vt 0.221376 0.811990
vt 0.286203 0.475791
vt 0.254479 0.475718
vt 0.066516 0.620253
vt 0.098844 0.620107
vt 0.062519 0.428514
vt 0.094369 0.425026
vt 0.286508 0.619584
vt 0.254181 0.619730
vt 0.291053 0.429345
vt 0.257218 0.425881
vt 0.062519 0.906593
vt 0.096353 0.910057
vt 0.133631 0.812266
vt 0.139491 0.812264
vt 0.139328 0.764194
vt 0.133172 0.860325
vt 0.128036 0.812262
vt 0.127852 0.860305
vt 0.227439 0.860278
vt 0.226987 0.811991
vt 0.221597 0.860287
vt 0.130917 0.910240
vt 0.125523 0.910332
vt 0.229746 0.910879
vt 0.223321 0.910776
vt 0.131976 0.475650
vt 0.130251 0.425161
vt 0.123826 0.425059
vt 0.126133 0.475660
vt 0.225720 0.475632
vt 0.228049 0.425606
vt 0.222655 0.425697
vt 0.220400 0.475612
vt 0.132197 0.523947
vt 0.126586 0.523946
vt 0.225537 0.523675
vt 0.219941 0.523671
vt 0.132391 0.572003
vt 0.126793 0.572004
vt 0.225702 0.571736
vt 0.220105 0.571736
vt 0.132653 0.620051
vt 0.127056 0.620051
vt 0.225969 0.619786
vt 0.220372 0.619786
vt 0.132928 0.668100
vt 0.127330 0.668100
vt 0.226242 0.667835
vt 0.220646 0.667836
vt 0.251862 0.763881
vt 0.251595 0.715831
vt 0.226516 0.715883
vt 0.164404 0.764142
vt 0.190246 0.763990
vt 0.102117 0.860229
vt 0.102979 0.812296
vt 0.253319 0.860159
vt 0.252112 0.811940
vt 0.099619 0.910071
vt 0.255877 0.910929
vt 0.100254 0.475779
vt 0.097695 0.425009
vt 0.251455 0.475709
vt 0.253953 0.425867
vt 0.101461 0.523997
vt 0.250593 0.523641
vt 0.101712 0.572055
vt 0.250779 0.571685
vt 0.101977 0.620104
vt 0.251048 0.619734
vt 0.102252 0.668153
vt 0.251321 0.667783
vt 0.102525 0.716201
vt 0.102793 0.764251
vt 0.226780 0.763932
vt 0.214785 0.667842
vt 0.139063 0.716142
vt 0.164574 0.812215
vt 0.190379 0.812041
vt 0.215478 0.860299
vt 0.110646 0.812289
vt 0.109451 0.860255
vt 0.119644 0.860288
vt 0.120268 0.812271
vt 0.136557 0.910372
vt 0.138747 0.860341
vt 0.216602 0.910923
vt 0.138095 0.475639
vt 0.136970 0.425015
vt 0.214825 0.475596
vt 0.217015 0.425565
vt 0.138073 0.523942
vt 0.214081 0.523674
vt 0.138253 0.571997
vt 0.214243 0.571742
vt 0.138515 0.620045
vt 0.214510 0.619793
vt 0.138789 0.668094
vt 0.118723 0.475686
vt 0.118801 0.523958
vt 0.243645 0.667798
vt 0.243919 0.715846
vt 0.207713 0.812008
vt 0.207202 0.860314
vt 0.196845 0.571779
vt 0.196680 0.523708
vt 0.109152 0.523981
vt 0.108435 0.475735
vt 0.119558 0.668114
vt 0.119832 0.716162
vt 0.206313 0.523683
vt 0.206475 0.571755
vt 0.233927 0.475650
vt 0.236888 0.426526
vt 0.146116 0.860363
vt 0.147259 0.812254
vt 0.246727 0.426569
vt 0.244121 0.475683
vt 0.110201 0.716186
vt 0.109928 0.668138
vt 0.146021 0.571984
vt 0.145860 0.523929
vt 0.234015 0.667822
vt 0.233741 0.619773
vt 0.156892 0.812229
vt 0.156363 0.860387
vt 0.155507 0.523906
vt 0.155651 0.571961
vt 0.116571 0.425828
vt 0.243371 0.619749
vt 0.197922 0.763975
vt 0.197660 0.715927
vt 0.197209 0.475551
vt 0.198066 0.812031
vt 0.106574 0.425861
vt 0.119284 0.620065
vt 0.207456 0.475574
vt 0.207552 0.763952
vt 0.237001 0.910109
vt 0.234849 0.860252
vt 0.207290 0.715903
vt 0.147097 0.764181
vt 0.245138 0.860203
vt 0.246998 0.910077
vt 0.109654 0.620089
vt 0.146371 0.475624
vt 0.156727 0.764157
vt 0.233475 0.571723
vt 0.146830 0.716128
vt 0.156665 0.475612
vt 0.197386 0.667879
vt 0.116684 0.909411
vt 0.243103 0.571700
vt 0.207016 0.667856
vt 0.156461 0.716105
vt 0.199931 0.426194
vt 0.244421 0.811956
vt 0.234773 0.811979
vt 0.106845 0.909369
vt 0.242926 0.523648
vt 0.233304 0.523666
vt 0.109389 0.572040
vt 0.119020 0.572017
vt 0.234289 0.715870
vt 0.110468 0.764236
vt 0.120097 0.764213
vt 0.244185 0.763896
vt 0.234553 0.763919
vt 0.196908 0.860326
vt 0.153641 0.909744
vt 0.143780 0.909680
vt 0.207591 0.910024
vt 0.197647 0.910017
vt 0.155925 0.425920
vt 0.145981 0.425914
vt 0.209792 0.426257
vt 0.155913 0.620008
vt 0.146283 0.620031
vt 0.206742 0.619806
vt 0.197112 0.619830
vt 0.156187 0.668056
vt 0.146557 0.668080
vt 0.652527 0.316285
vt 0.656782 0.329381
vt 0.656782 0.322142
vt 0.652527 0.335238
vt 0.645642 0.314048
vt 0.645642 0.337476
vt 0.638756 0.316285
vt 0.638756 0.335238
vt 0.634501 0.322142
vt 0.634501 0.329381
vt 0.616265 0.399439
vt 0.568075 0.547753
vt 0.616265 0.481425
vt 0.490101 0.573089
vt 0.568075 0.333111
vt 0.412127 0.547753
vt 0.363937 0.481425
vt 0.490101 0.307775
vt 0.412127 0.333110
vt 0.363937 0.399439
s 1
usemtl Material.002
f 1/1/1 2/2/1 3/3/1
f 1/1/1 3/3/1 4/4/1
f 5/4/2 6/3/2 7/5/2
f 5/4/2 7/5/2 8/6/2
f 9/6/3 10/5/3 11/7/3
f 9/6/3 11/7/3 12/8/3
f 13/8/4 14/7/4 15/9/4
f 13/8/4 15/9/4 16/10/4
f 17/10/5 18/9/5 19/11/5
f 17/10/5 19/11/5 20/12/5
f 21/12/6 22/11/6 23/13/6
f 21/12/6 23/13/6 24/14/6
f 25/14/7 26/13/7 27/15/7
f 25/14/7 27/15/7 28/16/7
f 29/16/8 30/15/8 31/17/8
f 29/16/8 31/17/8 32/18/8
f 33/19/9 34/20/9 35/21/9
f 33/19/9 35/21/9 36/22/9
f 37/22/10 38/21/10 39/2/10
f 37/22/10 39/2/10 40/1/10
f 41/23/11 42/24/11 43/25/11
f 41/23/11 43/25/11 44/26/11
f 45/27/12 46/28/12 47/29/12
f 45/27/12 47/29/12 48/30/12
f 49/31/13 50/32/13 51/28/13
f 49/31/13 51/28/13 52/27/13
f 53/33/14 54/34/14 55/35/14
f 53/33/14 55/35/14 56/36/14
f 57/37/15 58/38/15 59/34/15
f 57/37/15 59/34/15 60/33/15
f 61/39/16 62/40/16 63/38/16
f 61/39/16 63/38/16 64/37/16
f 65/41/17 66/42/17 67/40/17
f 65/41/17 67/40/17 68/39/17
f 69/43/18 70/44/18 71/42/18
f 69/43/18 71/42/18 72/41/18
f 73/45/19 74/46/19 75/44/19
f 73/45/19 75/44/19 76/43/19
f 77/47/20 78/48/20 79/46/20
f 77/47/20 79/46/20 80/45/20
f 81/30/21 82/29/21 83/48/21
f 81/30/21 83/48/21 84/47/21
f 85/49/22 86/23/22 87/26/22
f 85/49/22 87/26/22 88/50/22
f 89/51/23 90/49/23 91/50/23
f 89/51/23 91/50/23 92/52/23
f 93/53/24 94/54/24 95/55/24
f 93/53/24 95/55/24 96/56/24
f 97/57/25 98/51/25 99/52/25
f 97/57/25 99/52/25 100/58/25
f 101/54/26 102/57/26 103/58/26
f 101/54/26 103/58/26 104/55/26
f 105/59/27 106/53/27 107/56/27
f 105/59/27 107/56/27 108/60/27
f 109/61/28 110/59/28 111/60/28
f 109/61/28 111/60/28 112/62/28
f 113/63/29 114/64/29 115/65/29
f 113/63/29 115/65/29 116/66/29
f 117/24/30 118/63/30 119/66/30
f 117/24/30 119/66/30 120/25/30
f 121/53/21 122/67/21 123/68/21
f 121/53/21 123/68/21 124/54/21
f 125/69/31 126/70/31 127/71/31
f 125/69/31 127/71/31 128/72/31
f 129/54/20 130/68/20 131/73/20
f 129/54/20 131/73/20 132/57/20
f 133/74/32 134/75/32 135/76/32
f 133/74/32 135/76/32 136/77/32
f 137/57/19 138/73/19 139/78/19
f 137/57/19 139/78/19 140/51/19
f 141/79/33 142/80/33 143/81/33
f 141/79/33 143/81/33 144/82/33
f 145/51/18 146/78/18 147/83/18
f 145/51/18 147/83/18 148/49/18
f 149/84/34 150/85/34 151/86/34
f 149/84/34 151/86/34 152/87/35
f 153/49/17 154/83/17 155/88/17
f 153/49/17 155/88/17 156/23/17
f 157/89/36 158/90/36 159/91/36
f 157/89/36 159/91/36 160/92/36
f 161/23/16 162/88/16 163/93/16
f 161/23/16 163/93/16 164/24/16
f 165/94/37 166/95/38 167/96/38
f 165/94/37 167/96/38 168/97/37
f 169/24/15 170/93/15 171/98/15
f 169/24/15 171/98/15 172/63/15
f 173/99/39 174/69/39 175/72/39
f 173/99/39 175/72/39 176/100/39
f 177/63/14 178/98/14 179/101/14
f 177/63/14 179/101/14 180/64/14
f 181/75/40 182/102/40 183/103/40
f 181/75/40 183/103/40 184/76/40
f 185/61/13 186/104/13 187/105/13
f 185/61/13 187/105/13 188/59/13
f 189/106/41 190/79/41 191/82/41
f 189/106/41 191/82/41 192/107/41
f 193/59/12 194/105/12 195/67/12
f 193/59/12 195/67/12 196/53/12
f 197/85/42 198/108/42 199/109/42
f 197/85/42 199/109/42 200/86/43
f 201/110/44 202/111/44 203/112/44
f 201/110/44 203/112/44 204/113/44
f 205/114/45 206/115/45 207/116/45
f 205/114/45 207/116/45 208/117/45
f 209/118/19 210/119/19 211/120/19
f 209/118/19 211/120/19 212/121/19
f 213/121/18 214/120/18 215/122/18
f 213/121/18 215/122/18 216/123/18
f 217/123/17 218/122/17 219/124/17
f 217/123/17 219/124/17 220/125/17
f 221/125/16 222/124/16 223/126/16
f 221/125/16 223/126/16 224/127/16
f 225/127/15 226/126/15 227/128/15
f 225/127/15 227/128/15 228/129/15
f 229/129/14 230/128/14 231/130/14
f 229/129/14 231/130/14 232/131/14
f 233/132/13 234/133/13 235/134/13
f 233/132/13 235/134/13 236/135/13
f 237/136/46 238/137/46 239/115/46
f 237/136/46 239/115/46 240/114/46
f 241/90/47 242/138/48 243/139/48
f 241/90/47 243/139/48 244/91/47
f 245/140/49 246/84/49 247/87/49
f 245/140/49 247/87/49 248/141/49
f 249/142/50 250/74/50 251/77/50
f 249/142/50 251/77/50 252/143/50
f 253/70/51 254/144/52 255/145/52
f 253/70/51 255/145/52 256/71/51
f 257/108/53 258/94/53 259/97/53
f 257/108/53 259/97/53 260/109/53
f 261/138/54 262/146/54 263/147/54
f 261/138/54 263/147/54 264/139/54
f 265/102/55 266/140/55 267/141/55
f 265/102/55 267/141/55 268/103/55
f 269/80/56 270/99/56 271/100/56
f 269/80/56 271/100/56 272/81/56
f 273/95/57 274/148/58 275/149/58
f 273/95/57 275/149/58 276/96/57
f 277/144/59 278/89/60 279/92/60
f 277/144/59 279/92/60 280/145/59
f 281/150/61 282/151/61 283/152/62
f 281/150/61 283/152/62 284/110/62
f 285/153/63 286/150/63 287/154/63
f 285/153/63 287/154/63 288/155/63
f 289/156/64 290/157/64 291/137/64
f 289/156/64 291/137/64 292/158/64
f 293/159/65 294/153/66 295/155/65
f 293/159/65 295/155/65 296/160/65
f 297/161/67 298/156/67 299/158/67
f 297/161/67 299/158/67 300/162/67
f 301/163/68 302/164/68 303/165/68
f 301/163/68 303/165/68 304/166/68
f 305/167/69 306/168/69 307/169/69
f 305/167/69 307/169/69 308/170/69
f 309/171/70 310/163/70 311/166/70
f 309/171/70 311/166/70 312/172/70
f 313/173/71 314/167/71 315/170/71
f 313/173/71 315/170/71 316/174/71
f 317/175/72 318/171/73 319/172/73
f 317/175/72 319/172/73 320/176/72
f 321/177/74 322/173/74 323/174/74
f 321/177/74 323/174/74 324/178/74
f 325/179/75 326/175/75 327/176/75
f 325/179/75 327/176/75 328/180/75
f 329/181/76 330/177/76 331/178/76
f 329/181/76 331/178/76 332/182/76
f 333/183/77 334/179/77 335/180/77
f 333/183/77 335/180/77 336/184/77
f 337/185/78 338/181/78 339/182/78
f 337/185/78 339/182/78 340/186/78
f 341/111/79 342/183/79 343/184/79
f 341/111/79 343/184/79 344/112/79
f 345/187/20 346/100/20 347/72/20
f 345/187/20 347/72/20 348/188/20
f 349/189/80 350/185/80 351/186/80
f 349/189/80 351/186/80 352/116/80
f 353/190/20 354/191/20 355/119/20
f 353/190/20 355/119/20 356/118/20
f 357/96/12 358/192/12 359/193/12
f 357/96/12 359/193/12 360/97/12
f 361/194/12 362/82/12 363/81/12
f 361/194/12 363/81/12 364/195/12
f 365/149/13 366/196/13 367/192/13
f 365/149/13 367/192/13 368/96/13
f 369/197/13 370/107/13 371/82/13
f 369/197/13 371/82/13 372/194/13
f 373/77/14 374/198/14 375/199/14
f 373/77/14 375/199/14 376/143/14
f 377/200/14 378/139/14 379/147/14
f 377/200/14 379/147/14 380/201/14
f 381/76/15 382/202/15 383/198/15
f 381/76/15 383/198/15 384/77/15
f 385/203/15 386/91/15 387/139/15
f 385/203/15 387/139/15 388/200/15
f 389/103/16 390/204/16 391/202/16
f 389/103/16 391/202/16 392/76/16
f 393/205/16 394/92/16 395/91/16
f 393/205/16 395/91/16 396/203/16
f 397/141/17 398/206/17 399/204/17
f 397/141/17 399/204/17 400/103/17
f 401/207/17 402/145/17 403/92/17
f 401/207/17 403/92/17 404/205/17
f 405/87/18 406/208/18 407/206/18
f 405/87/18 407/206/18 408/141/18
f 409/209/18 410/71/18 411/145/18
f 409/209/18 411/145/18 412/207/18
f 413/86/19 414/210/19 415/208/19
f 413/86/19 415/208/19 416/87/19
f 417/188/19 418/72/19 419/71/19
f 417/188/19 419/71/19 420/209/19
f 421/109/20 422/211/20 423/210/20
f 421/109/20 423/210/20 424/86/20
f 425/195/21 426/81/21 427/100/21
f 425/195/21 427/100/21 428/187/21
f 429/97/21 430/193/21 431/211/21
f 429/97/21 431/211/21 432/109/21
f 433/212/81 434/189/81 435/116/81
f 433/212/81 435/116/81 436/115/81
f 437/150/82 438/110/82 439/113/82
f 437/150/82 439/113/82 440/154/82
f 441/117/83 442/116/83 443/186/83
f 441/117/83 443/186/83 444/213/83
f 445/110/84 446/152/84 447/214/84
f 445/110/84 447/214/84 448/111/84
f 449/215/21 450/216/21 451/191/21
f 449/215/21 451/191/21 452/190/21
f 453/217/85 454/158/85 455/137/85
f 453/217/85 455/137/85 456/136/85
f 457/218/12 458/219/12 459/220/12
f 457/218/12 459/220/12 460/221/12
f 461/159/86 462/222/86 463/223/86
f 461/159/86 463/223/86 464/153/86
f 465/224/87 466/162/87 467/158/87
f 465/224/87 467/158/87 468/217/87
f 469/163/88 470/225/88 471/226/88
f 469/163/88 471/226/88 472/164/88
f 473/227/89 474/170/89 475/169/89
f 473/227/89 475/169/89 476/228/89
f 477/171/90 478/229/90 479/225/90
f 477/171/90 479/225/90 480/163/90
f 481/230/91 482/174/91 483/170/91
f 481/230/91 483/170/91 484/227/91
f 485/175/92 486/231/92 487/229/92
f 485/175/92 487/229/92 488/171/92
f 489/232/93 490/178/94 491/174/93
f 489/232/93 491/174/93 492/230/93
f 493/179/95 494/233/95 495/231/95
f 493/179/95 495/231/95 496/175/95
f 497/234/96 498/182/96 499/178/96
f 497/234/96 499/178/96 500/232/97
f 501/183/98 502/235/98 503/233/98
f 501/183/98 503/233/98 504/179/98
f 505/213/99 506/186/99 507/182/99
f 505/213/99 507/182/99 508/234/99
f 509/111/100 510/214/100 511/235/100
f 509/111/100 511/235/100 512/183/100
f 513/153/101 514/223/101 515/151/101
f 513/153/101 515/151/101 516/150/101
f 517/135/12 518/134/12 519/216/12
f 517/135/12 519/216/12 520/215/12
f 521/172/102 522/166/103 523/236/103
f 521/172/102 523/236/103 524/237/102
f 525/188/104 526/209/105 527/238/105
f 525/188/104 527/238/105 528/239/104
f 529/217/106 530/136/106 531/240/106
f 529/217/106 531/240/106 532/241/106
f 533/126/107 534/124/107 535/242/107
f 533/126/107 535/242/107 536/243/107
f 537/198/108 538/202/109 539/244/109
f 537/198/108 539/244/109 540/245/108
f 541/112/104 542/184/104 543/246/104
f 541/112/104 543/246/104 544/247/104
f 545/232/110 546/230/111 547/248/111
f 545/232/110 547/248/111 548/249/110
f 549/168/112 550/167/112 551/250/112
f 549/168/112 551/250/112 552/251/112
f 553/151/113 554/223/114 555/252/114
f 553/151/113 555/252/114 556/253/115
f 557/200/116 558/201/117 559/254/117
f 557/200/116 559/254/117 560/255/116
f 561/208/118 562/210/118 563/256/118
f 561/208/118 563/256/118 564/257/118
f 565/229/107 566/231/107 567/258/107
f 565/229/107 567/258/107 568/259/107
f 569/181/119 570/185/120 571/260/120
f 569/181/119 571/260/120 572/261/119
f 573/135/106 574/215/106 575/262/106
f 573/135/106 575/262/106 576/263/106
f 577/125/111 578/127/111 579/264/111
f 577/125/111 579/264/111 580/265/111
f 581/166/117 582/165/117 583/266/117
f 581/166/117 583/266/117 584/236/117
f 585/209/121 586/207/122 587/267/122
f 585/209/121 587/267/122 588/238/121
f 589/119/123 590/191/124 591/268/124
f 589/119/123 591/268/124 592/269/123
f 593/128/109 594/126/109 595/243/109
f 593/128/109 595/243/109 596/270/109
f 597/191/125 598/216/125 599/271/125
f 597/191/125 599/271/125 600/268/125
f 601/199/126 602/198/126 603/245/126
f 601/199/126 603/245/126 604/272/126
f 605/184/122 606/180/121 607/273/121
f 605/184/122 607/273/121 608/246/122
f 609/230/102 610/227/103 611/274/103
f 609/230/102 611/274/103 612/248/102
f 613/136/127 614/114/127 615/275/127
f 613/136/127 615/275/127 616/240/128
f 617/156/129 618/161/130 619/276/130
f 617/156/129 619/276/130 620/277/129
f 621/114/131 622/117/131 623/278/131
f 621/114/131 623/278/131 624/275/131
f 625/152/125 626/151/132 627/253/132
f 625/152/125 627/253/132 628/279/125
f 629/197/133 630/194/133 631/280/133
f 629/197/133 631/280/133 632/281/133
f 633/206/120 634/208/134 635/257/134
f 633/206/120 635/257/134 636/282/120
f 637/225/135 638/229/135 639/259/135
f 637/225/135 639/259/135 640/283/135
f 641/215/127 642/190/127 643/284/127
f 641/215/127 643/284/127 644/262/127
f 645/177/136 646/181/136 647/261/136
f 645/177/136 647/261/136 648/285/136
f 649/214/123 650/152/124 651/279/124
f 649/214/123 651/279/124 652/286/123
f 653/127/103 654/129/102 655/287/102
f 653/127/103 655/287/102 656/264/103
f 657/120/137 658/119/137 659/269/137
f 657/120/137 659/269/137 660/288/137
f 661/160/133 662/155/138 663/220/138
f 661/160/133 663/220/138 664/289/133
f 665/207/139 666/205/139 667/290/139
f 665/207/139 667/290/139 668/267/139
f 669/117/104 670/213/104 671/291/104
f 669/117/104 671/291/104 672/278/104
f 673/190/131 674/118/140 675/292/140
f 673/190/131 675/292/140 676/284/131
f 677/130/141 678/128/112 679/270/112
f 677/130/141 679/270/112 680/293/141
f 681/157/142 682/212/143 683/115/143
f 681/157/142 683/115/143 684/137/142
f 685/280/12 686/294/12 687/295/12
f 685/280/12 687/295/12 688/277/12
f 689/219/13 690/296/13 691/289/13
f 689/219/13 691/289/13 692/220/13
f 693/281/13 694/280/13 695/277/13
f 693/281/13 695/277/13 696/276/13
f 697/272/14 698/245/14 699/236/14
f 697/272/14 699/236/14 700/266/14
f 701/255/14 702/254/14 703/251/14
f 701/255/14 703/251/14 704/250/14
f 705/245/15 706/244/15 707/237/15
f 705/245/15 707/237/15 708/236/15
f 709/297/15 710/255/15 711/250/15
f 709/297/15 711/250/15 712/298/15
f 713/244/16 714/299/16 715/300/16
f 713/244/16 715/300/16 716/237/16
f 717/290/16 718/297/16 719/298/16
f 717/290/16 719/298/16 720/285/16
f 721/299/17 722/282/17 723/273/17
f 721/299/17 723/273/17 724/300/17
f 725/267/17 726/290/17 727/285/17
f 725/267/17 727/285/17 728/261/17
f 729/282/18 730/257/18 731/246/18
f 729/282/18 731/246/18 732/273/18
f 733/238/18 734/267/18 735/261/18
f 733/238/18 735/261/18 736/260/18
f 737/257/19 738/256/19 739/247/19
f 737/257/19 739/247/19 740/246/19
f 741/239/19 742/238/19 743/260/19
f 741/239/19 743/260/19 744/301/19
f 745/256/20 746/302/20 747/303/20
f 745/256/20 747/303/20 748/247/20
f 749/304/20 750/239/20 751/301/20
f 749/304/20 751/301/20 752/305/20
f 753/302/21 754/218/21 755/221/21
f 753/302/21 755/221/21 756/303/21
f 757/294/21 758/304/21 759/305/21
f 757/294/21 759/305/21 760/295/21
f 761/284/20 762/292/20 763/286/20
f 761/284/20 763/286/20 764/279/20
f 765/275/20 766/278/20 767/269/20
f 765/275/20 767/269/20 768/268/20
f 769/263/12 770/262/12 771/253/12
f 769/263/12 771/253/12 772/252/12
f 773/241/12 774/240/12 775/271/12
f 773/241/12 775/271/12 776/306/12
f 777/307/13 778/263/13 779/252/13
f 777/307/13 779/252/13 780/308/13
f 781/309/13 782/241/13 783/306/13
f 781/309/13 783/306/13 784/310/13
f 785/287/14 786/311/14 787/312/14
f 785/287/14 787/312/14 788/283/14
f 789/274/14 790/313/14 791/293/14
f 789/274/14 791/293/14 792/270/14
f 793/264/15 794/287/15 795/283/15
f 793/264/15 795/283/15 796/259/15
f 797/248/15 798/274/15 799/270/15
f 797/248/15 799/270/15 800/243/15
f 801/265/16 802/264/16 803/259/16
f 801/265/16 803/259/16 804/258/16
f 805/249/16 806/248/16 807/243/16
f 805/249/16 807/243/16 808/242/16
f 809/314/17 810/265/17 811/258/17
f 809/314/17 811/258/17 812/315/17
f 813/316/17 814/249/17 815/242/17
f 813/316/17 815/242/17 816/317/17
f 817/318/18 818/314/18 819/315/18
f 817/318/18 819/315/18 820/319/18
f 821/291/18 822/316/18 823/317/18
f 821/291/18 823/317/18 824/288/18
f 825/292/19 826/318/19 827/319/19
f 825/292/19 827/319/19 828/286/19
f 829/278/19 830/291/19 831/288/19
f 829/278/19 831/288/19 832/269/19
f 833/262/21 834/284/21 835/279/21
f 833/262/21 835/279/21 836/253/21
f 837/240/21 838/275/21 839/268/21
f 837/240/21 839/268/21 840/271/21
f 841/123/139 842/125/139 843/265/139
f 841/123/139 843/265/139 844/314/139
f 845/216/114 846/134/114 847/306/114
f 845/216/114 847/306/114 848/271/114
f 849/185/137 850/189/137 851/301/137
f 849/185/137 851/301/137 852/260/137
f 853/231/136 854/233/136 855/315/136
f 853/231/136 855/315/136 856/258/136
f 857/210/124 858/211/123 859/302/123
f 857/210/124 859/302/123 860/256/124
f 861/203/103 862/200/102 863/255/102
f 861/203/103 863/255/102 864/297/103
f 865/132/133 866/135/138 867/263/138
f 865/132/133 867/263/138 868/307/133
f 869/167/135 870/173/135 871/298/135
f 869/167/135 871/298/135 872/250/109
f 873/234/139 874/232/144 875/249/144
f 873/234/139 875/249/144 876/316/139
f 877/223/129 878/222/130 879/308/130
f 877/223/129 879/308/130 880/252/129
f 881/113/131 882/112/131 883/247/131
f 881/113/131 883/247/131 884/303/131
f 885/202/107 886/204/107 887/299/107
f 885/202/107 887/299/107 888/244/107
f 889/124/136 890/122/136 891/317/136
f 889/124/136 891/317/136 892/242/136
f 893/193/114 894/192/114 895/219/114
f 893/193/114 895/219/114 896/218/114
f 897/224/138 898/217/138 899/241/138
f 897/224/138 899/241/138 900/309/138
f 901/187/140 902/188/131 903/239/131
f 901/187/140 903/239/131 904/304/140
f 905/176/111 906/172/145 907/237/145
f 905/176/111 907/237/145 908/300/111
f 909/121/121 910/123/122 911/314/122
f 909/121/121 911/314/122 912/318/121
f 913/134/129 914/133/130 915/310/130
f 913/134/129 915/310/130 916/306/129
f 917/189/123 918/212/124 919/305/124
f 917/189/123 919/305/124 920/301/123
f 921/155/106 922/154/106 923/221/106
f 921/155/106 923/221/106 924/220/106
f 925/233/120 926/235/120 927/319/120
f 925/233/120 927/319/120 928/315/119
f 929/211/125 930/193/125 931/218/125
f 929/211/125 931/218/125 932/302/125
f 933/205/111 934/203/111 935/297/111
f 933/205/111 935/297/111 936/290/111
f 937/129/116 938/131/117 939/311/117
f 937/129/116 939/311/117 940/287/116
f 941/154/127 942/113/127 943/303/127
f 941/154/127 943/303/127 944/221/127
f 945/173/146 946/177/107 947/285/107
f 945/173/146 947/285/107 948/298/146
f 949/194/147 950/195/106 951/294/106
f 949/194/147 951/294/106 952/280/147
f 953/213/122 954/234/121 955/316/121
f 953/213/122 955/316/121 956/291/122
f 957/226/112 958/225/112 959/283/112
f 957/226/112 959/283/112 960/312/112
f 961/195/127 962/187/127 963/304/127
f 961/195/127 963/304/127 964/294/127
f 965/204/136 966/206/136 967/282/136
f 965/204/136 967/282/136 968/299/136
f 969/122/120 970/120/120 971/288/120
f 969/122/120 971/288/120 972/317/120
f 973/212/125 974/157/125 975/295/125
f 973/212/125 975/295/125 976/305/125
f 977/157/114 978/156/148 979/277/148
f 977/157/114 979/277/148 980/295/114
f 981/118/104 982/121/105 983/318/105
f 981/118/104 983/318/105 984/292/104
f 985/227/117 986/228/117 987/313/117
f 985/227/117 987/313/117 988/274/117
f 989/180/139 990/176/139 991/300/139
f 989/180/139 991/300/139 992/273/139
f 993/192/130 994/196/129 995/296/129
f 993/192/130 995/296/129 996/219/130
f 997/235/137 998/214/137 999/286/137
f 997/235/137 999/286/137 1000/319/137
f 1006/320/149 1004/321/149 1005/322/150
f 1004/321/149 1006/320/149 1003/323/149
f 1003/323/149 1006/320/149 1007/324/149
f 1003/323/149 1007/324/149 1002/325/149
f 1002/325/149 1007/324/149 1008/326/149
f 1002/325/149 1008/326/149 1001/327/149
f 1001/327/149 1008/326/149 1009/328/149
f 1001/327/149 1009/328/149 1010/329/150
f 1020/330/151 1018/331/151 1019/332/151
f 1018/331/151 1020/330/151 1017/333/151
f 1017/333/151 1020/330/151 1011/334/151
f 1017/333/151 1011/334/151 1016/335/151
f 1016/335/151 1011/334/151 1015/336/151
f 1015/336/151 1011/334/151 1012/337/151
f 1015/336/151 1012/337/151 1013/338/151
f 1015/336/151 1013/338/151 1014/339/151
