# Blender 4.4.3
# www.blender.org
mtllib pencil_holder.mtl
o Cube
v 0.000000 0.042900 -0.013000
v -0.075000 0.000000 0.075000
v 0.000000 0.043000 0.013000
v -0.075000 0.060000 0.075000
v 0.002536 0.042900 -0.012750
v 0.002536 0.043000 0.012750
v -0.075000 0.000000 -0.075000
v 0.004975 0.042900 -0.012010
v 0.004975 0.043000 0.012010
v 0.007222 0.042900 -0.010809
v -0.075000 0.060000 -0.075000
v 0.007222 0.043000 0.010809
v 0.075000 0.000000 0.075000
v 0.009192 0.042900 -0.009192
v 0.009192 0.043000 0.009192
v 0.075000 0.060000 0.075000
v 0.010809 0.042900 -0.007222
v 0.010809 0.043000 0.007222
v 0.075000 0.000000 -0.075000
v 0.012010 0.042900 -0.004975
v 0.012010 0.043000 0.004975
v 0.075000 0.060000 -0.075000
v 0.012750 0.042900 -0.002536
v 0.012750 0.043000 0.002536
v 0.013000 0.043000 0.000000
v 0.013000 0.042900 0.000000
v 0.012750 0.043000 -0.002536
v 0.012010 0.043000 -0.004975
v 0.012750 0.042900 0.002536
v 0.010809 0.043000 -0.007222
v 0.009192 0.043000 -0.009192
v 0.012010 0.042900 0.004975
v 0.007222 0.043000 -0.010809
v 0.010809 0.042900 0.007222
v 0.004975 0.043000 -0.012010
v 0.002536 0.043000 -0.012750
v 0.009192 0.042900 0.009192
v 0.000000 0.043000 -0.013000
v -0.002536 0.043000 -0.012750
v 0.007222 0.042900 0.010809
v -0.004975 0.043000 -0.012010
v -0.007222 0.043000 -0.010809
v 0.004975 0.042900 0.012010
v -0.009192 0.043000 -0.009192
v -0.010809 0.043000 -0.007222
v 0.002536 0.042900 0.012750
v -0.012010 0.043000 -0.004975
v -0.012750 0.043000 -0.002536
v 0.000000 0.042900 0.013000
v -0.013000 0.043000 0.000000
v -0.012750 0.043000 0.002536
v -0.012010 0.043000 0.004975
v -0.002536 0.042900 0.012750
v -0.010809 0.043000 0.007222
v -0.004975 0.042900 0.012010
v -0.009192 0.043000 0.009192
v -0.007222 0.043000 0.010809
v -0.007222 0.042900 0.010809
v -0.004975 0.043000 0.012010
v -0.002536 0.043000 0.012750
v 0.000000 0.030000 0.000000
v -0.009192 0.042900 0.009192
v -0.010809 0.042900 0.007222
v -0.012010 0.042900 0.004975
v -0.012750 0.042900 0.002536
v -0.013000 0.042900 0.000000
v -0.012750 0.042900 -0.002536
v -0.012010 0.042900 -0.004975
v -0.010809 0.042900 -0.007222
v -0.009192 0.042900 -0.009192
v -0.007222 0.042900 -0.010809
v -0.004975 0.042900 -0.012010
v -0.002536 0.042900 -0.012750
v -0.013000 0.060000 0.000000
v -0.012750 0.060000 -0.002536
v -0.012750 0.060000 0.002536
v -0.010809 0.060000 0.007222
v -0.010809 0.060000 -0.007222
v -0.009192 0.060000 0.009192
v -0.012010 0.060000 0.004975
v -0.012010 0.060000 -0.004975
v -0.007222 0.060000 -0.010809
v -0.002536 0.060000 -0.012750
v -0.004975 0.060000 -0.012010
v 0.002536 0.060000 -0.012750
v 0.009192 0.060000 -0.009192
v 0.007222 0.060000 -0.010809
v 0.004975 0.060000 -0.012010
v 0.000000 0.060000 -0.013000
v -0.009192 0.060000 -0.009192
v -0.007222 0.060000 0.010809
v -0.002536 0.060000 0.012750
v -0.004975 0.060000 0.012010
v 0.002536 0.060000 0.012750
v 0.007222 0.060000 0.010809
v 0.004975 0.060000 0.012010
v 0.000000 0.060000 0.013000
v 0.010809 0.060000 0.007222
v 0.010809 0.060000 -0.007222
v 0.013000 0.060000 0.000000
v 0.012750 0.060000 0.002536
v 0.012750 0.060000 -0.002536
v 0.012010 0.060000 0.004975
v 0.012010 0.060000 -0.004975
v 0.009192 0.060000 0.009192
v 0.000000 0.042900 0.012900
v 0.000000 0.043000 0.013000
v 0.002536 0.043000 0.012750
v 0.002536 0.043000 0.012750
v 0.002517 0.042900 0.012652
v 0.004937 0.042900 0.011918
v 0.004975 0.043000 0.012010
v 0.004975 0.043000 0.012010
v 0.007222 0.043000 0.010809
v 0.007222 0.043000 0.010809
v 0.007167 0.042900 0.010726
v 0.009192 0.043000 0.009192
v 0.009122 0.042900 0.009122
v 0.010726 0.042900 0.007167
v 0.010809 0.043000 0.007222
v 0.010809 0.043000 0.007222
v 0.011918 0.042900 0.004937
v 0.012010 0.043000 0.004975
v 0.012010 0.043000 0.004975
v 0.012652 0.042900 0.002517
v 0.012750 0.043000 0.002536
v 0.012750 0.043000 0.002536
v 0.012900 0.042900 0.000000
v 0.013000 0.043000 0.000000
v 0.012652 0.042900 -0.002517
v 0.012750 0.043000 -0.002536
v 0.012750 0.043000 -0.002536
v 0.011918 0.042900 -0.004937
v 0.012010 0.043000 -0.004975
v 0.012010 0.043000 -0.004975
v 0.010809 0.043000 -0.007222
v 0.010809 0.043000 -0.007222
v 0.010726 0.042900 -0.007167
v 0.009192 0.043000 -0.009192
v 0.009122 0.042900 -0.009122
v 0.007222 0.043000 -0.010809
v 0.007167 0.042900 -0.010726
v 0.004975 0.043000 -0.012010
v 0.004937 0.042900 -0.011918
v 0.007222 0.043000 -0.010809
v 0.002536 0.043000 -0.012750
v 0.002517 0.042900 -0.012652
v 0.004975 0.043000 -0.012010
v 0.000000 0.043000 -0.013000
v 0.000000 0.042900 -0.012900
v 0.002536 0.043000 -0.012750
v -0.002536 0.043000 -0.012750
v -0.002536 0.043000 -0.012750
v -0.002517 0.042900 -0.012652
v -0.004975 0.043000 -0.012010
v -0.004975 0.043000 -0.012010
v -0.004937 0.042900 -0.011918
v -0.007167 0.042900 -0.010726
v -0.007222 0.043000 -0.010809
v -0.007222 0.043000 -0.010809
v -0.009122 0.042900 -0.009122
v -0.009192 0.043000 -0.009192
v -0.010809 0.043000 -0.007222
v -0.010726 0.042900 -0.007167
v -0.012010 0.043000 -0.004975
v -0.011918 0.042900 -0.004937
v -0.010809 0.043000 -0.007222
v -0.012750 0.043000 -0.002536
v -0.012652 0.042900 -0.002517
v -0.012010 0.043000 -0.004975
v -0.013000 0.043000 0.000000
v -0.012900 0.042900 0.000000
v -0.012750 0.043000 -0.002536
v -0.012750 0.043000 0.002536
v -0.012750 0.043000 0.002536
v -0.012652 0.042900 0.002517
v -0.012010 0.043000 0.004975
v -0.012010 0.043000 0.004975
v -0.011918 0.042900 0.004937
v -0.010726 0.042900 0.007167
v -0.010809 0.043000 0.007222
v -0.010809 0.043000 0.007222
v -0.009122 0.042900 0.009122
v -0.009192 0.043000 0.009192
v -0.007167 0.042900 0.010726
v -0.007222 0.043000 0.010809
v -0.007222 0.043000 0.010809
v -0.004937 0.042900 0.011918
v -0.004975 0.043000 0.012010
v 0.007222 0.043000 0.010809
v 0.002536 0.043000 0.012750
v -0.002536 0.043000 0.012750
v -0.007222 0.043000 0.010809
v -0.010809 0.043000 0.007222
v -0.012750 0.043000 0.002536
v -0.012750 0.043000 -0.002536
v -0.010809 0.043000 -0.007222
v -0.007222 0.043000 -0.010809
v -0.002536 0.043000 -0.012750
v 0.002536 0.043000 -0.012750
v 0.007222 0.043000 -0.010809
v 0.010809 0.043000 -0.007222
v 0.012750 0.043000 -0.002536
v 0.012750 0.043000 0.002536
v 0.010809 0.043000 0.007222
v 0.004975 0.043000 0.012010
v -0.004975 0.043000 0.012010
v -0.012010 0.043000 0.004975
v -0.012010 0.043000 -0.004975
v -0.004975 0.043000 -0.012010
v 0.004975 0.043000 -0.012010
v 0.012010 0.043000 -0.004975
v 0.012010 0.043000 0.004975
v 0.000000 0.043000 0.013000
v -0.013000 0.043000 0.000000
v 0.000000 0.043000 -0.013000
v 0.013000 0.043000 0.000000
v -0.009192 0.043000 0.009192
v 0.009192 0.043000 0.009192
v -0.009192 0.043000 -0.009192
v 0.009192 0.043000 -0.009192
v -0.004975 0.043000 0.012010
v -0.002517 0.042900 0.012652
v -0.002536 0.043000 0.012750
v -0.002536 0.043000 0.012750
vn -1.0000 -0.0000 -0.0000
vn -0.0000 -0.0000 -1.0000
vn 1.0000 -0.0000 -0.0000
vn -0.0000 -0.0000 1.0000
vn -0.0000 -1.0000 -0.0000
vn -0.0000 1.0000 -0.0000
vn -0.0695 0.7054 -0.7054
vn -0.0754 0.7539 -0.6526
vn -0.2058 0.7054 -0.6783
vn -0.2939 0.7346 -0.6115
vn -0.3341 0.7054 -0.6251
vn -0.5708 -0.0000 -0.8211
vn -0.4497 0.7054 -0.5479
vn -0.3691 0.6920 -0.6204
vn -0.5479 0.7054 -0.4497
vn -0.5737 0.7171 -0.3957
vn -0.4425 0.8297 -0.3402
vn -0.6251 0.7054 -0.3341
vn -0.6129 0.7661 -0.1935
vn -0.6783 0.7054 -0.2058
vn -0.5892 0.8055 -0.0628
vn -0.7054 0.7054 -0.0695
vn -0.7054 0.7054 0.0695
vn -0.5892 0.8055 0.0628
vn -0.6783 0.7054 0.2058
vn -0.6129 0.7661 0.1935
vn -0.6251 0.7054 0.3341
vn -0.4425 0.8297 0.3402
vn -0.5479 0.7054 0.4497
vn -0.5737 0.7171 0.3957
vn -0.4497 0.7054 0.5479
vn -0.3766 0.7113 0.5935
vn -0.5696 -0.2922 0.7682
vn -0.3341 0.7054 0.6251
vn -0.2735 0.8204 0.5021
vn -0.2058 0.7054 0.6783
vn -0.0403 0.7554 0.6540
vn -0.0695 0.7054 0.7054
vn 0.0695 0.7054 0.7054
vn 0.1350 0.5890 0.7968
vn 0.2058 0.7054 0.6783
vn 0.2043 0.8472 0.4905
vn 0.3341 0.7054 0.6251
vn 0.5238 0.2722 0.8072
vn 0.4497 0.7054 0.5479
vn 0.3388 0.7161 0.6103
vn 0.5479 0.7054 0.4497
vn 0.5728 0.7105 0.4088
vn 0.6140 0.7207 0.3219
vn 0.6251 0.7054 0.3341
vn 0.4797 0.8528 0.2065
vn 0.6783 0.7054 0.2058
vn 0.5892 0.8055 0.0628
vn 0.7054 0.7054 0.0695
vn 0.7054 0.7054 -0.0695
vn 0.6798 0.7312 -0.0572
vn 0.6783 0.7054 -0.2058
vn 0.3830 0.8955 -0.2267
vn 0.6251 0.7054 -0.3341
vn 0.4493 0.8326 -0.3238
vn 0.5479 0.7054 -0.4497
vn 0.5979 0.6951 -0.3991
vn 0.4497 0.7054 -0.5479
vn 0.3691 0.6920 -0.6204
vn 0.5708 -0.0000 -0.8211
vn 0.3341 0.7054 -0.6251
vn 0.0885 -0.9961 -0.0000
vn 0.3041 -0.9527 -0.0000
vn 0.2939 0.7346 -0.6115
vn 0.2058 0.7054 -0.6783
vn 0.0754 0.7539 -0.6526
vn 0.0695 0.7054 -0.7054
vn -0.0980 -0.0000 0.9952
vn -0.2903 -0.0000 0.9569
vn -0.4714 -0.0000 0.8819
vn -0.6344 -0.0000 0.7730
vn -0.7730 -0.0000 0.6344
vn -0.8819 -0.0000 0.4714
vn -0.9569 -0.0000 0.2903
vn -0.9952 -0.0000 0.0980
vn -0.9952 -0.0000 -0.0980
vn -0.9569 -0.0000 -0.2903
vn -0.8819 -0.0000 -0.4714
vn -0.7730 -0.0000 -0.6344
vn -0.6344 -0.0000 -0.7730
vn -0.4714 -0.0000 -0.8819
vn -0.2903 -0.0000 -0.9569
vn -0.0980 -0.0000 -0.9952
vn 0.0980 -0.0000 -0.9952
vn 0.2903 -0.0000 -0.9569
vn 0.4714 -0.0000 -0.8819
vn 0.6344 -0.0000 -0.7730
vn 0.7730 -0.0000 -0.6344
vn 0.8819 -0.0000 -0.4714
vn 0.9569 -0.0000 -0.2903
vn 0.9952 -0.0000 -0.0980
vn 0.9952 -0.0000 0.0980
vn 0.9569 -0.0000 0.2903
vn 0.8819 -0.0000 0.4714
vn 0.7730 -0.0000 0.6344
vn 0.6344 -0.0000 0.7730
vn 0.4714 -0.0000 0.8819
vn 0.2903 -0.0000 0.9569
vn 0.0980 -0.0000 0.9952
vt 0.375000 0.000000
vt 0.625000 0.000000
vt 0.625000 0.250000
vt 0.375000 0.250000
vt 0.625000 0.500000
vt 0.375000 0.500000
vt 0.625000 0.750000
vt 0.375000 0.750000
vt 0.625000 1.000000
vt 0.375000 1.000000
vt 0.125000 0.500000
vt 0.125000 0.750000
vt 0.765321 0.640321
vt 0.875000 0.750000
vt 0.734679 0.640321
vt 0.737963 0.643015
vt 0.741709 0.645017
vt 0.745773 0.646250
vt 0.750000 0.646667
vt 0.754227 0.646250
vt 0.758291 0.645017
vt 0.762037 0.643015
vt 0.875000 0.500000
vt 0.768015 0.637037
vt 0.770017 0.633291
vt 0.771250 0.629227
vt 0.771667 0.625000
vt 0.771250 0.620773
vt 0.770017 0.616709
vt 0.768015 0.612963
vt 0.765321 0.609679
vt 0.762037 0.606985
vt 0.758291 0.604983
vt 0.754227 0.603750
vt 0.750000 0.603333
vt 0.745773 0.603750
vt 0.741709 0.604983
vt 0.737963 0.606985
vt 0.734679 0.609679
vt 0.731985 0.612963
vt 0.729983 0.616709
vt 0.728750 0.620773
vt 0.728333 0.625000
vt 0.728750 0.629227
vt 0.729983 0.633291
vt 0.731985 0.637037
vt 0.296462 0.483578
vt 0.250000 0.250000
vt 0.250000 0.488154
vt 0.250000 0.490000
vt 0.296822 0.485388
vt 0.341138 0.470026
vt 0.341844 0.471731
vt 0.382311 0.448018
vt 0.383337 0.449553
vt 0.418400 0.418400
vt 0.419706 0.419706
vt 0.419706 0.419706
vt 0.448018 0.382311
vt 0.449553 0.383337
vt 0.471731 0.341844
vt 0.449553 0.383337
vt 0.470026 0.341138
vt 0.485388 0.296822
vt 0.483578 0.296462
vt 0.490000 0.250000
vt 0.485388 0.296822
vt 0.488154 0.250000
vt 0.483578 0.203538
vt 0.485388 0.203178
vt 0.470026 0.158862
vt 0.471731 0.158156
vt 0.471731 0.158156
vt 0.448018 0.117689
vt 0.449553 0.116663
vt 0.449553 0.116663
vt 0.418400 0.081600
vt 0.419706 0.080294
vt 0.419706 0.080294
vt 0.382311 0.051982
vt 0.383337 0.050447
vt 0.383337 0.050447
vt 0.341844 0.028269
vt 0.341138 0.029974
vt 0.341844 0.028269
vt 0.296822 0.014612
vt 0.296462 0.016422
vt 0.296822 0.014612
vt 0.250000 0.010000
vt 0.250000 0.011846
vt 0.203538 0.016422
vt 0.250000 0.011846
vt 0.250000 0.010000
vt 0.203178 0.014612
vt 0.158862 0.029974
vt 0.203178 0.014612
vt 0.158156 0.028269
vt 0.158156 0.028269
vt 0.117689 0.051982
vt 0.116663 0.050447
vt 0.116663 0.050447
vt 0.081600 0.081600
vt 0.080294 0.080294
vt 0.080294 0.080294
vt 0.051982 0.117689
vt 0.050447 0.116663
vt 0.050447 0.116663
vt 0.028269 0.158156
vt 0.029974 0.158862
vt 0.028269 0.158156
vt 0.014612 0.203178
vt 0.016422 0.203538
vt 0.014612 0.203178
vt 0.010000 0.250000
vt 0.011846 0.250000
vt 0.016422 0.296462
vt 0.011846 0.250000
vt 0.010000 0.250000
vt 0.014612 0.296822
vt 0.029974 0.341138
vt 0.014612 0.296822
vt 0.028269 0.341844
vt 0.028269 0.341844
vt 0.051982 0.382311
vt 0.050447 0.383337
vt 0.050447 0.383337
vt 0.081600 0.418400
vt 0.080294 0.419706
vt 0.080294 0.419706
vt 0.117689 0.448018
vt 0.116663 0.449553
vt 0.158156 0.471731
vt 0.116663 0.449553
vt 0.158862 0.470026
vt 0.750000 0.490000
vt 0.703178 0.485388
vt 0.658156 0.471731
vt 0.616663 0.449553
vt 0.580294 0.419706
vt 0.550447 0.383337
vt 0.528269 0.341844
vt 0.514612 0.296822
vt 0.510000 0.250000
vt 0.703178 0.485388
vt 0.514612 0.203178
vt 0.528269 0.158156
vt 0.550447 0.116663
vt 0.580294 0.080294
vt 0.616663 0.050447
vt 0.658156 0.028269
vt 0.703178 0.014612
vt 0.750000 0.010000
vt 0.796822 0.014612
vt 0.841844 0.028269
vt 0.883337 0.050447
vt 0.919706 0.080294
vt 0.949553 0.116663
vt 0.971731 0.158156
vt 0.985388 0.203178
vt 0.990000 0.250000
vt 0.985388 0.296822
vt 0.971731 0.341844
vt 0.949553 0.383337
vt 0.919706 0.419706
vt 0.883337 0.449553
vt 0.841844 0.471731
vt 0.796822 0.485388
vt 0.949553 0.383337
vt 0.883337 0.050447
vt 0.841844 0.028269
vt 0.796822 0.014612
vt 0.750000 0.010000
vt 0.580294 0.080294
vt 0.550447 0.116663
vt 0.528269 0.158156
vt 0.203178 0.485388
vt 0.203538 0.483578
vt 1.000000 0.501908
vt 1.000000 0.500000
vt 0.968750 0.500000
vt 0.968750 0.501908
vt 0.968750 0.826336
vt 1.000000 0.826336
vt 0.937500 0.500000
vt 0.937500 0.501908
vt 0.937500 0.826336
vt 0.906250 0.500000
vt 0.906250 0.501908
vt 0.906250 0.501908
vt 0.906250 0.826336
vt 0.875000 0.501908
vt 0.875000 0.826336
vt 0.843750 0.500000
vt 0.843750 0.501908
vt 0.843750 0.501908
vt 0.843750 0.826336
vt 0.812500 0.500000
vt 0.812500 0.501908
vt 0.812500 0.826336
vt 0.781250 0.500000
vt 0.781250 0.501908
vt 0.781250 0.826336
vt 0.750000 0.500000
vt 0.750000 0.501908
vt 0.750000 0.826336
vt 0.718750 0.500000
vt 0.718750 0.501908
vt 0.718750 0.826336
vt 0.687500 0.500000
vt 0.687500 0.501908
vt 0.687500 0.826336
vt 0.656250 0.500000
vt 0.656250 0.501908
vt 0.656250 0.826336
vt 0.656250 0.501908
vt 0.625000 0.501908
vt 0.625000 0.826336
vt 0.593750 0.500000
vt 0.593750 0.501908
vt 0.593750 0.501908
vt 0.593750 0.826336
vt 0.562500 0.500000
vt 0.562500 0.501908
vt 0.562500 0.826336
vt 0.531250 0.500000
vt 0.531250 0.501908
vt 0.531250 0.501908
vt 0.531250 0.826336
vt 0.500000 0.500000
vt 0.500000 0.501908
vt 0.500000 0.826336
vt 0.468750 0.500000
vt 0.468750 0.501908
vt 0.468750 0.826336
vt 0.437500 0.500000
vt 0.437500 0.501908
vt 0.437500 0.826336
vt 0.406250 0.500000
vt 0.406250 0.501908
vt 0.406250 0.826336
vt 0.406250 0.501908
vt 0.375000 0.501908
vt 0.375000 0.826336
vt 0.343750 0.500000
vt 0.343750 0.501908
vt 0.343750 0.501908
vt 0.343750 0.826336
vt 0.312500 0.500000
vt 0.312500 0.501908
vt 0.312500 0.826336
vt 0.281250 0.500000
vt 0.281250 0.501908
vt 0.281250 0.826336
vt 0.250000 0.500000
vt 0.250000 0.501908
vt 0.250000 0.826336
vt 0.218750 0.500000
vt 0.218750 0.501908
vt 0.218750 0.826336
vt 0.187500 0.500000
vt 0.187500 0.501908
vt 0.187500 0.826336
vt 0.156250 0.500000
vt 0.156250 0.501908
vt 0.156250 0.501908
vt 0.156250 0.826336
vt 0.125000 0.501908
vt 0.125000 0.826336
vt 0.093750 0.500000
vt 0.093750 0.501908
vt 0.093750 0.501908
vt 0.093750 0.826336
vt 0.062500 0.500000
vt 0.062500 0.501908
vt 0.062500 0.826336
vt 0.031250 0.500000
vt 0.031250 0.501908
vt 0.031250 0.826336
vt 0.000000 0.500000
vt 0.000000 0.501908
vt 0.000000 0.826336
vt 0.581600 0.081600
vt 0.551982 0.117689
vt 0.529974 0.158862
vt 0.516422 0.203538
vt 0.511846 0.250000
vt 0.516422 0.296462
vt 0.529974 0.341138
vt 0.551982 0.382311
vt 0.581600 0.418400
vt 0.617689 0.448018
vt 0.658862 0.470026
vt 0.703539 0.483578
vt 0.750000 0.488154
vt 0.796462 0.483578
vt 0.841138 0.470026
vt 0.882311 0.448018
vt 0.918400 0.418400
vt 0.948018 0.382311
vt 0.970026 0.341138
vt 0.983578 0.296462
vt 0.988154 0.250000
vt 0.983578 0.203539
vt 0.970026 0.158862
vt 0.948018 0.117689
vt 0.918400 0.081600
vt 0.882311 0.051982
vt 0.841138 0.029974
vt 0.796462 0.016422
vt 0.750000 0.011846
vt 0.703539 0.016422
vt 0.658862 0.029974
vt 0.617689 0.051982
s 0
f 2/1/1 4/2/1 11/3/1 7/4/1
f 7/4/2 11/3/2 22/5/2 19/6/2
f 19/6/3 22/5/3 16/7/3 13/8/3
f 13/8/4 16/7/4 4/9/4 2/10/4
f 7/11/5 19/6/5 13/8/5 2/12/5
f 79/13/6 4/14/6 16/7/6 105/15/6 95/16/6 96/17/6 94/18/6 97/19/6 92/20/6 93/21/6 91/22/6
f 16/7/6 22/5/6 11/23/6 4/14/6 79/13/6 77/24/6 80/25/6 76/26/6 74/27/6 75/28/6 81/29/6 78/30/6 90/31/6 82/32/6 84/33/6 83/34/6 89/35/6 85/36/6 88/37/6 87/38/6 86/39/6 99/40/6 104/41/6 102/42/6 100/43/6 101/44/6 103/45/6 98/46/6 105/15/6
f 110/47/7 61/48/7 106/49/7
f 3/50/8 6/51/8 109/51/8 108/51/8 107/50/8
f 111/52/9 61/48/9 110/47/9
f 6/51/10 9/53/10 113/53/10 112/53/10 109/51/10
f 116/54/11 61/48/11 111/52/11
f 9/53/12 12/55/12 115/55/12 114/55/12 113/53/12
f 118/56/13 61/48/13 116/54/13
f 12/55/14 15/57/14 117/58/14 115/55/14
f 61/48/15 118/56/15 119/59/15
f 15/57/16 18/60/16 120/60/16 117/58/16
f 18/60/17 21/61/17 123/61/17 121/62/17 120/60/17
f 61/48/18 119/59/18 122/63/18
f 21/61/19 24/64/19 126/64/19 124/61/19 123/61/19
f 61/48/20 122/63/20 125/65/20
f 24/64/21 25/66/21 129/66/21 127/67/21 126/64/21
f 61/48/22 125/65/22 128/68/22
f 130/69/23 61/48/23 128/68/23
f 25/66/24 27/70/24 132/70/24 131/70/24 129/66/24
f 133/71/25 61/48/25 130/69/25
f 27/70/26 28/72/26 135/73/26 134/73/26 132/70/26
f 138/74/27 61/48/27 133/71/27
f 28/72/28 30/75/28 137/76/28 136/76/28 135/73/28
f 140/77/29 61/48/29 138/74/29
f 30/75/30 31/78/30 139/79/30 137/76/30
f 142/80/31 61/48/31 140/77/31
f 139/79/32 31/78/32 33/81/32 141/81/32
f 145/82/33 141/81/33 33/81/33 35/83/33 143/83/33
f 144/84/34 61/48/34 142/80/34
f 148/85/35 143/83/35 35/83/35 36/86/35 146/86/35
f 147/87/36 61/48/36 144/84/36
f 151/88/37 146/88/37 36/86/37 38/89/37 149/89/37
f 150/90/38 61/48/38 147/87/38
f 154/91/39 61/48/39 150/92/39
f 149/93/40 38/89/40 39/94/40 152/94/40 153/94/40
f 157/95/41 61/48/41 154/91/41
f 152/96/42 39/94/42 41/97/42 155/98/42 156/98/42
f 61/48/43 157/95/43 158/99/43
f 155/98/44 41/97/44 42/100/44 159/101/44 160/101/44
f 61/48/45 158/99/45 161/102/45
f 159/101/46 42/100/46 44/103/46 162/104/46
f 164/105/47 61/48/47 161/102/47
f 162/104/48 44/103/48 45/106/48 163/106/48
f 167/107/49 163/106/49 45/106/49 47/108/49 165/108/49
f 166/109/50 61/48/50 164/105/50
f 170/110/51 165/108/51 47/108/51 48/111/51 168/111/51
f 169/112/52 61/48/52 166/109/52
f 173/113/53 168/113/53 48/111/53 50/114/53 171/114/53
f 172/115/54 61/48/54 169/112/54
f 176/116/55 61/48/55 172/117/55
f 171/118/56 50/114/56 51/119/56 174/119/56 175/119/56
f 179/120/57 61/48/57 176/116/57
f 174/121/58 51/119/58 52/122/58 177/123/58 178/123/58
f 61/48/59 179/120/59 180/124/59
f 177/123/60 52/122/60 54/125/60 181/126/60 182/126/60
f 61/48/61 180/124/61 183/127/61
f 181/126/62 54/125/62 56/128/62 184/129/62
f 61/48/63 183/127/63 185/130/63
f 56/128/64 57/131/64 186/131/64 184/129/64
f 57/131/65 59/132/65 189/132/65 187/133/65 186/131/65
f 61/48/66 185/130/66 188/134/66
f 214/135/67 3/135/67 60/136/67 59/137/67 57/138/67 56/139/67 54/140/67 52/141/67 51/142/67 50/143/67 215/143/67 195/142/67 208/141/67 194/140/67 218/139/67 193/138/67 207/137/67 192/144/67
f 50/143/68 48/145/68 47/146/68 45/147/68 44/148/68 42/149/68 41/150/68 39/151/68 38/152/68 36/153/68 35/154/68 33/155/68 31/156/68 30/157/68 28/158/68 27/159/68 25/160/68 24/161/68 21/162/68 18/163/68 15/164/68 12/165/68 9/166/68 6/167/68 3/135/68 214/135/68 191/167/68 206/166/68 190/165/68 219/164/68 205/168/68 213/162/68 204/161/68 217/160/68 203/159/68 212/158/68 202/157/68 221/156/68 201/169/68 211/170/68 200/171/68 216/172/68 199/151/68 210/150/68 198/149/68 220/173/68 197/174/68 209/175/68 196/145/68 215/143/68
f 59/132/69 60/176/69 224/176/69 222/132/69 189/132/69
f 61/48/70 188/134/70 223/177/70
f 60/176/71 3/50/71 107/50/71 225/176/71 224/176/71
f 61/48/72 223/177/72 106/49/72
f 149/178/73 1/179/73 5/180/73 151/181/73
f 200/181/73 85/182/73 89/183/73 216/178/73
f 151/181/74 5/180/74 8/184/74 148/185/74 146/181/74
f 211/185/74 88/186/74 85/182/74 200/181/74
f 148/185/75 8/184/75 10/187/75 145/188/75 143/185/75
f 201/189/75 87/190/75 88/186/75 211/185/75
f 145/188/76 10/187/76 14/23/76 139/191/76 141/188/76
f 221/191/76 86/192/76 87/190/76 201/189/76
f 14/23/77 17/193/77 136/194/77 137/195/77 139/191/77
f 99/196/77 86/192/77 221/191/77 202/195/77
f 17/193/78 20/197/78 134/198/78 135/198/78 136/194/78
f 104/199/78 99/196/78 202/195/78 212/198/78
f 20/197/79 23/200/79 131/201/79 132/201/79 134/198/79
f 102/202/79 104/199/79 212/198/79 203/201/79
f 23/200/80 26/203/80 129/204/80 131/201/80
f 100/205/80 102/202/80 203/201/80 217/204/80
f 26/203/81 29/206/81 127/207/81 129/204/81
f 101/208/81 100/205/81 217/204/81 204/207/81
f 29/206/82 32/209/82 124/210/82 126/207/82 127/207/82
f 103/211/82 101/208/82 204/207/82 213/210/82
f 123/210/83 124/210/83 32/209/83 34/212/83 121/213/83
f 98/214/83 103/211/83 213/210/83 205/215/83
f 34/212/84 37/5/84 117/216/84 120/213/84 121/213/84
f 219/216/84 105/217/84 98/214/84 205/215/84
f 37/5/85 40/218/85 114/219/85 115/220/85 117/216/85
f 95/221/85 105/217/85 219/216/85 190/220/85
f 40/218/86 43/222/86 112/223/86 113/223/86 114/219/86
f 96/224/86 95/221/86 190/220/86 206/223/86
f 43/222/87 46/225/87 108/226/87 109/227/87 112/223/87
f 94/228/87 96/224/87 206/223/87 191/227/87
f 46/225/88 49/229/88 107/230/88 108/226/88
f 97/231/88 94/228/88 191/227/88 214/230/88
f 49/229/89 53/232/89 225/233/89 107/230/89
f 92/234/89 97/231/89 214/230/89 192/233/89
f 53/232/90 55/235/90 222/236/90 224/233/90 225/233/90
f 93/237/90 92/234/90 192/233/90 207/236/90
f 189/236/91 222/236/91 55/235/91 58/238/91 187/239/91
f 91/240/91 93/237/91 207/236/91 193/241/91
f 58/238/92 62/6/92 184/242/92 186/239/92 187/239/92
f 218/242/92 79/243/92 91/240/92 193/241/92
f 184/242/93 62/6/93 63/244/93 182/245/93 181/246/93
f 194/246/93 77/247/93 79/243/93 218/242/93
f 182/245/94 63/244/94 64/248/94 178/249/94 177/249/94
f 208/249/94 80/250/94 77/247/94 194/246/94
f 178/249/95 64/248/95 65/251/95 175/252/95 174/252/95
f 195/252/95 76/253/95 80/250/95 208/249/95
f 175/252/96 65/251/96 66/254/96 171/255/96
f 215/255/96 74/256/96 76/253/96 195/252/96
f 171/255/97 66/254/97 67/257/97 173/258/97
f 196/258/97 75/259/97 74/256/97 215/255/97
f 173/258/98 67/257/98 68/260/98 170/261/98 168/258/98
f 209/261/98 81/262/98 75/259/98 196/258/98
f 170/261/99 68/260/99 69/263/99 167/264/99 165/261/99
f 197/265/99 78/266/99 81/262/99 209/261/99
f 167/264/100 69/263/100 70/11/100 162/267/100 163/264/100
f 220/267/100 90/268/100 78/266/100 197/265/100
f 162/267/101 70/11/101 71/269/101 160/270/101 159/271/101
f 198/271/101 82/272/101 90/268/101 220/267/101
f 160/270/102 71/269/102 72/273/102 156/274/102 155/274/102
f 210/274/102 84/275/102 82/272/102 198/271/102
f 156/274/103 72/273/103 73/276/103 153/277/103 152/277/103
f 199/277/103 83/278/103 84/275/103 210/274/103
f 153/277/104 73/276/104 1/279/104 149/280/104
f 216/280/104 89/281/104 83/278/104 199/277/104
f 37/156/6 34/157/6 32/158/6 29/159/6 26/160/6 23/161/6 20/162/6 17/163/6 14/164/6 10/165/6 8/166/6 5/167/6 1/135/6 73/136/6 72/137/6 71/138/6 70/139/6 69/140/6 68/141/6 67/142/6 66/143/6 65/145/6 64/146/6 63/147/6 62/148/6 183/282/6 180/283/6 179/284/6 176/285/6 172/286/6 169/287/6 166/288/6 164/289/6 161/290/6 158/291/6 157/292/6 154/293/6 150/294/6 147/295/6 144/296/6 142/297/6 140/298/6 138/299/6 133/300/6 130/301/6 128/302/6 125/303/6 122/304/6 119/305/6 118/306/6
f 183/282/6 62/148/6 58/149/6 55/150/6 53/151/6 49/152/6 46/153/6 43/154/6 40/155/6 37/156/6 118/306/6 116/307/6 111/308/6 110/309/6 106/310/6 223/311/6 188/312/6 185/313/6
